<svg xmlns="http://www.w3.org/2000/svg" xmlns:xlink="http://www.w3.org/1999/xlink" width="300" zoomAndPan="magnify" viewBox="0 0 224.87999 299.999988" height="400" preserveAspectRatio="xMidYMid meet" version="1.0"><defs><g/><clipPath id="0160e1e66e"><path d="M 0 0.078125 L 224.761719 0.078125 L 224.761719 299.917969 L 0 299.917969 Z M 0 0.078125 " clip-rule="nonzero"/></clipPath><clipPath id="8c1a6ea2ea"><path d="M 59 167.351562 L 224.761719 167.351562 L 224.761719 299.917969 L 59 299.917969 Z M 59 167.351562 " clip-rule="nonzero"/></clipPath><clipPath id="fe2cafeeb5"><path d="M 27.636719 173.179688 L 178.898438 173.179688 L 178.898438 299.917969 L 27.636719 299.917969 Z M 27.636719 173.179688 " clip-rule="nonzero"/></clipPath><clipPath id="049b9bdfa3"><path d="M 40.296875 173.179688 L 177.601562 173.179688 L 177.601562 299.917969 L 40.296875 299.917969 Z M 40.296875 173.179688 " clip-rule="nonzero"/></clipPath><clipPath id="ba5592a1f0"><path d="M 27.636719 171.5 L 175 171.5 L 175 299.917969 L 27.636719 299.917969 Z M 27.636719 171.5 " clip-rule="nonzero"/></clipPath><clipPath id="7732c1c6a6"><path d="M 38.671875 173.503906 L 178.898438 173.503906 L 178.898438 299.917969 L 38.671875 299.917969 Z M 38.671875 173.503906 " clip-rule="nonzero"/></clipPath><clipPath id="4de49f951a"><path d="M 56 209 L 180.972656 209 L 180.972656 299.917969 L 56 299.917969 Z M 56 209 " clip-rule="nonzero"/></clipPath><clipPath id="58265db5f8"><path d="M 0 0.078125 L 108 0.078125 L 108 100 L 0 100 Z M 0 0.078125 " clip-rule="nonzero"/></clipPath></defs><g clip-path="url(#0160e1e66e)"><path fill="#ffffff" d="M 0 0.078125 L 224.878906 0.078125 L 224.878906 299.921875 L 0 299.921875 Z M 0 0.078125 " fill-opacity="1" fill-rule="nonzero"/><path fill="#ffbd59" d="M 0 0.078125 L 224.878906 0.078125 L 224.878906 299.921875 L 0 299.921875 Z M 0 0.078125 " fill-opacity="1" fill-rule="nonzero"/></g><g clip-path="url(#8c1a6ea2ea)"><path fill="#8c52ff" d="M 305.605469 167.824219 C 324.070312 167.667969 339.878906 173.136719 355.363281 179.925781 C 369.167969 185.980469 380.707031 194.992188 390.289062 206.585938 C 400.570312 219.027344 402.703125 232.804688 396.195312 247.476562 C 393.144531 254.359375 389.082031 260.832031 385.042969 267.21875 C 381.007812 273.585938 377.578125 280.167969 377.925781 287.808594 C 378.28125 295.53125 379.441406 303.226562 380.394531 310.914062 C 381.277344 318.050781 382.988281 325.144531 383.207031 332.285156 C 383.882812 354.570312 376.121094 373.859375 361.347656 390.46875 C 345.171875 408.667969 324.765625 416.804688 300.675781 415.6875 C 296.007812 415.46875 291.089844 414.144531 286.855469 412.117188 C 279.890625 408.773438 273.050781 404.9375 266.773438 400.4375 C 254.375 391.542969 240.953125 385.429688 225.804688 383.421875 C 218.277344 382.421875 210.746094 382.394531 203.246094 384.101562 C 188.875 387.371094 174.382812 388.667969 159.941406 384.886719 C 147.597656 381.65625 136.59375 375.796875 127.335938 366.816406 C 120.597656 360.277344 118.726562 352.476562 120.558594 343.511719 C 122.730469 332.847656 124.914062 322.183594 127.03125 311.507812 C 128.488281 304.113281 127.726562 296.773438 126.078125 289.515625 C 125.070312 285.121094 122.589844 281.667969 118.304688 280.042969 C 114.179688 278.488281 109.945312 277.097656 105.652344 276.089844 C 97.363281 274.140625 89.082031 272.242188 81.695312 267.765625 C 71.378906 261.503906 63.671875 253.234375 60.671875 241.109375 C 58.691406 233.117188 59.746094 225.441406 63.703125 218.59375 C 75.59375 198 92.761719 183.980469 116.234375 178.355469 C 124.65625 176.335938 132.800781 177.722656 140.679688 180.746094 C 147.394531 183.320312 154.015625 186.195312 160.550781 189.210938 C 171.261719 194.164062 182.230469 197.398438 194.238281 196.808594 C 203.261719 196.367188 211.636719 193.648438 220.046875 190.863281 C 238.613281 184.722656 257.101562 178.324219 275.761719 172.449219 C 285.8125 169.289062 296.222656 167.589844 305.605469 167.824219 Z M 305.605469 167.824219 " fill-opacity="1" fill-rule="evenodd"/></g><g clip-path="url(#fe2cafeeb5)"><path fill="#8c52ff" d="M 161.339844 282.570312 L 155.710938 274.109375 L 153.539062 274.109375 C 151.335938 277.046875 149.011719 279.878906 146.589844 282.570312 Z M 50.464844 187.394531 C 50.464844 187.523438 50.476562 187.652344 50.496094 187.773438 C 51.890625 186.824219 53.339844 185.925781 54.832031 185.074219 C 54.382812 184.773438 53.84375 184.59375 53.261719 184.59375 C 51.71875 184.59375 50.464844 185.847656 50.464844 187.394531 Z M 178.832031 287.628906 L 172.308594 287.628906 L 175.261719 313.078125 L 170.523438 313.078125 L 167.566406 287.628906 L 150.855469 287.628906 L 147.902344 313.078125 L 143.160156 313.078125 L 146.117188 287.628906 L 141.742188 287.628906 C 129.101562 300.003906 114.308594 308.347656 99.804688 308.347656 C 93.324219 308.347656 86.902344 307.085938 80.71875 304.808594 L 81.679688 313.078125 L 76.9375 313.078125 L 75.738281 302.734375 C 69.050781 299.628906 62.71875 295.355469 56.96875 290.25 L 54.320312 313.078125 L 49.578125 313.078125 L 52.53125 287.628906 L 46.367188 287.628906 L 46.367188 282.570312 L 49.320312 282.570312 C 36.195312 267.722656 27.636719 248.433594 27.636719 230.136719 C 27.636719 213.070312 35.082031 199.851562 46.730469 190.550781 C 46.527344 190.136719 46.367188 189.703125 46.246094 189.253906 L 44.117188 188.785156 L 44.117188 186 L 46.246094 185.53125 C 46.414062 184.90625 46.660156 184.308594 46.984375 183.75 L 45.808594 181.910156 L 47.78125 179.941406 L 49.621094 181.117188 C 50.179688 180.789062 50.777344 180.542969 51.402344 180.378906 L 51.871094 178.246094 L 54.65625 178.246094 L 55.125 180.378906 C 55.75 180.542969 56.351562 180.789062 56.910156 181.117188 L 58.746094 179.941406 L 60.714844 181.910156 L 60.574219 182.132812 C 61.632812 181.648438 62.707031 181.1875 63.800781 180.746094 L 63.800781 178.246094 L 70.914062 178.246094 C 76.640625 176.515625 82.683594 175.328125 88.875 174.691406 C 88.871094 174.636719 88.859375 174.585938 88.859375 174.527344 C 88.859375 173.882812 89.386719 173.355469 90.035156 173.355469 C 90.664062 173.355469 91.171875 173.851562 91.203125 174.472656 C 94.046875 174.246094 96.921875 174.128906 99.804688 174.128906 C 136.867188 174.128906 175.851562 179.730469 175.851562 216.792969 C 175.851562 233.898438 167.546875 254.71875 154.960938 272.179688 L 164.796875 272.179688 L 171.707031 282.570312 L 178.832031 282.570312 Z M 44.921875 175.703125 C 45.570312 175.703125 46.097656 175.175781 46.097656 174.527344 C 46.097656 173.882812 45.570312 173.355469 44.921875 173.355469 C 44.273438 173.355469 43.75 173.882812 43.75 174.527344 C 43.75 175.175781 44.273438 175.703125 44.921875 175.703125 Z M 135.003906 174.527344 C 135.003906 173.882812 135.53125 173.355469 136.179688 173.355469 C 136.824219 173.355469 137.351562 173.882812 137.351562 174.527344 C 137.351562 175.175781 136.824219 175.703125 136.179688 175.703125 C 135.53125 175.703125 135.003906 175.175781 135.003906 174.527344 " fill-opacity="1" fill-rule="nonzero"/></g><g clip-path="url(#049b9bdfa3)"><path fill="#f6e25d" d="M 132.960938 175.378906 C 133.429688 175.378906 133.8125 175 133.8125 174.527344 C 133.8125 174.0625 133.429688 173.679688 132.960938 173.679688 C 132.492188 173.679688 132.113281 174.0625 132.113281 174.527344 C 132.113281 175 132.492188 175.378906 132.960938 175.378906 Z M 152.171875 200.792969 L 156.125 200.792969 L 156.125 199.820312 L 152.171875 199.820312 Z M 150.640625 187.652344 L 145.25 184.433594 L 145.25 190.871094 Z M 164.101562 196.539062 L 131.789062 196.539062 L 131.789062 179.664062 L 164.101562 179.664062 Z M 157.847656 198.738281 L 155.09375 198.738281 L 155.09375 199.710938 L 157.847656 199.710938 Z M 152.171875 198.738281 L 152.171875 199.710938 L 154.925781 199.710938 L 154.925781 198.738281 Z M 157.847656 197.65625 L 152.171875 197.65625 L 152.171875 198.628906 L 157.847656 198.628906 Z M 66.988281 200.847656 L 63.6875 200.847656 L 63.6875 201.171875 L 66.988281 201.171875 Z M 68.710938 200.089844 L 68.710938 199.765625 L 66.609375 199.765625 L 66.609375 200.089844 Z M 65.789062 199.765625 L 63.6875 199.765625 L 63.6875 200.089844 L 65.789062 200.089844 Z M 68.710938 198.683594 L 63.6875 198.683594 L 63.6875 199.007812 L 68.710938 199.007812 Z M 46.265625 200.847656 L 42.960938 200.847656 L 42.960938 201.171875 L 46.265625 201.171875 Z M 47.984375 200.089844 L 47.984375 199.765625 L 45.882812 199.765625 L 45.882812 200.089844 Z M 45.0625 199.765625 L 42.960938 199.765625 L 42.960938 200.089844 L 45.0625 200.089844 Z M 47.984375 198.683594 L 42.960938 198.683594 L 42.960938 199.007812 L 47.984375 199.007812 Z M 69.902344 190.769531 L 64.125 190.769531 L 64.125 192.792969 L 69.902344 192.792969 Z M 69.902344 181.945312 L 64.125 181.945312 L 64.125 183.96875 L 69.902344 183.96875 Z M 41.707031 175.378906 C 42.175781 175.378906 42.554688 175 42.554688 174.527344 C 42.554688 174.0625 42.175781 173.679688 41.707031 173.679688 C 41.238281 173.679688 40.859375 174.0625 40.859375 174.527344 C 40.859375 175 41.238281 175.378906 41.707031 175.378906 Z M 48.429688 187.394531 C 48.429688 190.058594 50.597656 192.226562 53.261719 192.226562 C 55.929688 192.226562 58.097656 190.058594 58.097656 187.394531 C 58.097656 184.726562 55.929688 182.558594 53.261719 182.558594 C 50.597656 182.558594 48.429688 184.726562 48.429688 187.394531 Z M 48.105469 187.394531 C 48.105469 184.546875 50.417969 182.234375 53.261719 182.234375 C 56.109375 182.234375 58.421875 184.546875 58.421875 187.394531 C 58.421875 190.238281 56.109375 192.550781 53.261719 192.550781 C 50.417969 192.550781 48.105469 190.238281 48.105469 187.394531 Z M 109.699219 216.515625 C 109.433594 216.515625 109.191406 216.730469 109.15625 216.996094 C 109.125 217.261719 109.3125 217.476562 109.578125 217.476562 C 109.84375 217.476562 110.085938 217.261719 110.117188 216.996094 C 110.152344 216.730469 109.964844 216.515625 109.699219 216.515625 Z M 123.476562 216.667969 L 118.644531 216.667969 C 118.464844 216.667969 118.320312 216.816406 118.320312 216.996094 C 118.320312 217.175781 118.464844 217.320312 118.644531 217.320312 L 123.476562 217.320312 C 123.65625 217.320312 123.800781 217.175781 123.800781 216.996094 C 123.800781 216.816406 123.65625 216.667969 123.476562 216.667969 Z M 86.820312 175.703125 C 87.464844 175.703125 87.992188 175.175781 87.992188 174.527344 C 87.992188 173.882812 87.464844 173.355469 86.820312 173.355469 C 86.171875 173.355469 85.644531 173.882812 85.644531 174.527344 C 85.644531 175.175781 86.171875 175.703125 86.820312 175.703125 Z M 95.574219 197.539062 C 95.574219 198.050781 95.988281 198.464844 96.503906 198.464844 L 103.53125 198.464844 C 104.042969 198.464844 104.460938 198.050781 104.460938 197.539062 C 104.460938 197.023438 104.042969 196.609375 103.53125 196.609375 L 96.503906 196.609375 C 95.988281 196.609375 95.574219 197.023438 95.574219 197.539062 Z M 89.144531 192.816406 L 96.175781 192.816406 C 96.6875 192.816406 97.105469 192.402344 97.105469 191.886719 C 97.105469 191.375 96.6875 190.960938 96.175781 190.960938 L 89.144531 190.960938 C 88.632812 190.960938 88.214844 191.375 88.214844 191.886719 C 88.214844 192.402344 88.632812 192.816406 89.144531 192.816406 Z M 89.144531 187.167969 L 101.324219 187.167969 C 101.835938 187.167969 102.253906 186.753906 102.253906 186.238281 C 102.253906 185.726562 101.835938 185.3125 101.324219 185.3125 L 89.144531 185.3125 C 88.632812 185.3125 88.214844 185.726562 88.214844 186.238281 C 88.214844 186.753906 88.632812 187.167969 89.144531 187.167969 Z M 103.671875 192.816406 L 106.160156 192.816406 C 106.671875 192.816406 107.089844 192.402344 107.089844 191.886719 C 107.089844 191.375 106.671875 190.960938 106.160156 190.960938 L 103.671875 190.960938 C 103.160156 190.960938 102.746094 191.375 102.746094 191.886719 C 102.746094 192.402344 103.160156 192.816406 103.671875 192.816406 Z M 101.140625 192.816406 C 101.652344 192.816406 102.070312 192.402344 102.070312 191.886719 C 102.070312 191.375 101.652344 190.960938 101.140625 190.960938 L 98.652344 190.960938 C 98.140625 190.960938 97.722656 191.375 97.722656 191.886719 C 97.722656 192.402344 98.140625 192.816406 98.652344 192.816406 Z M 89.144531 184.34375 L 91.628906 184.34375 C 92.144531 184.34375 92.558594 183.929688 92.558594 183.417969 C 92.558594 182.902344 92.144531 182.488281 91.628906 182.488281 L 89.144531 182.488281 C 88.632812 182.488281 88.214844 182.902344 88.214844 183.417969 C 88.214844 183.929688 88.632812 184.34375 89.144531 184.34375 Z M 89.144531 181.519531 L 97.515625 181.519531 C 98.027344 181.519531 98.445312 181.105469 98.445312 180.59375 C 98.445312 180.082031 98.027344 179.664062 97.515625 179.664062 L 89.144531 179.664062 C 88.632812 179.664062 88.214844 180.082031 88.214844 180.59375 C 88.214844 181.105469 88.632812 181.519531 89.144531 181.519531 Z M 107.226562 304.265625 L 48.144531 304.265625 C 45.710938 304.265625 43.738281 306.238281 43.738281 308.671875 C 43.738281 311.105469 45.710938 313.078125 48.144531 313.078125 L 107.226562 313.078125 C 109.660156 313.078125 111.628906 311.105469 111.628906 308.671875 C 111.628906 306.238281 109.660156 304.265625 107.226562 304.265625 Z M 175.386719 212.234375 C 175.386719 212.058594 175.242188 211.910156 175.0625 211.910156 L 159.101562 211.910156 C 158.921875 211.910156 158.777344 212.058594 158.777344 212.234375 C 158.777344 212.414062 158.921875 212.558594 159.101562 212.558594 L 175.0625 212.558594 C 175.242188 212.558594 175.386719 212.414062 175.386719 212.234375 Z M 167.886719 217.320312 L 170.625 217.320312 C 170.804688 217.320312 170.949219 217.175781 170.949219 216.996094 C 170.949219 216.816406 170.804688 216.667969 170.625 216.667969 L 167.886719 216.667969 C 167.710938 216.667969 167.5625 216.816406 167.5625 216.996094 C 167.5625 217.175781 167.710938 217.320312 167.886719 217.320312 Z M 174.324219 219.117188 C 174.324219 218.9375 174.175781 218.789062 174 218.789062 L 167.621094 218.789062 C 167.441406 218.789062 167.296875 218.9375 167.296875 219.117188 C 167.296875 219.292969 167.441406 219.441406 167.621094 219.441406 L 174 219.441406 C 174.175781 219.441406 174.324219 219.292969 174.324219 219.117188 Z M 167.355469 221.5625 L 170.628906 221.5625 C 170.808594 221.5625 170.953125 221.414062 170.953125 221.238281 C 170.953125 221.058594 170.808594 220.914062 170.628906 220.914062 L 167.355469 220.914062 C 167.175781 220.914062 167.03125 221.058594 167.03125 221.238281 C 167.03125 221.414062 167.175781 221.5625 167.355469 221.5625 Z M 165.4375 235.09375 C 165.257812 235.09375 165.113281 235.238281 165.113281 235.417969 C 165.113281 235.597656 165.257812 235.742188 165.4375 235.742188 L 168.171875 235.742188 C 168.351562 235.742188 168.496094 235.597656 168.496094 235.417969 C 168.496094 235.238281 168.351562 235.09375 168.171875 235.09375 Z M 171.871094 237.539062 C 171.871094 237.359375 171.726562 237.214844 171.546875 237.214844 L 165.167969 237.214844 C 164.992188 237.214844 164.84375 237.359375 164.84375 237.539062 C 164.84375 237.71875 164.992188 237.863281 165.167969 237.863281 L 171.546875 237.863281 C 171.726562 237.863281 171.871094 237.71875 171.871094 237.539062 Z M 168.503906 239.660156 C 168.503906 239.480469 168.359375 239.335938 168.175781 239.335938 L 164.902344 239.335938 C 164.726562 239.335938 164.578125 239.480469 164.578125 239.660156 C 164.578125 239.835938 164.726562 239.984375 164.902344 239.984375 L 168.175781 239.984375 C 168.359375 239.984375 168.503906 239.835938 168.503906 239.660156 Z M 161.515625 219.359375 C 161.515625 219.179688 161.371094 219.035156 161.191406 219.035156 L 155.722656 219.035156 C 155.542969 219.035156 155.398438 219.179688 155.398438 219.359375 C 155.398438 219.539062 155.542969 219.683594 155.722656 219.683594 L 161.191406 219.683594 C 161.371094 219.683594 161.515625 219.539062 161.515625 219.359375 Z M 158.777344 223.601562 C 158.777344 223.421875 158.632812 223.277344 158.453125 223.277344 L 153.671875 223.277344 C 153.496094 223.277344 153.347656 223.421875 153.347656 223.601562 C 153.347656 223.78125 153.496094 223.925781 153.671875 223.925781 L 158.453125 223.925781 C 158.632812 223.925781 158.777344 223.78125 158.777344 223.601562 Z M 157.632812 250.242188 C 157.632812 250.0625 157.488281 249.917969 157.308594 249.917969 L 148.707031 249.917969 C 148.527344 249.917969 148.378906 250.0625 148.378906 250.242188 C 148.378906 250.421875 148.527344 250.566406 148.707031 250.566406 L 157.308594 250.566406 C 157.488281 250.566406 157.632812 250.421875 157.632812 250.242188 Z M 133.222656 214.628906 L 109.492188 214.628906 C 108.59375 214.628906 107.777344 215.355469 107.664062 216.253906 L 107.273438 219.359375 L 134.25 219.359375 L 134.640625 216.253906 C 134.753906 215.355469 134.121094 214.628906 133.222656 214.628906 Z M 130.503906 239.03125 C 130.503906 238.851562 130.359375 238.707031 130.179688 238.707031 L 127.285156 238.707031 C 127.105469 238.707031 126.957031 238.851562 126.957031 239.03125 C 126.957031 239.210938 127.105469 239.355469 127.285156 239.355469 L 130.179688 239.355469 C 130.359375 239.355469 130.503906 239.210938 130.503906 239.03125 Z M 123.519531 240.589844 C 123.519531 240.410156 123.371094 240.265625 123.195312 240.265625 L 120.480469 240.265625 C 120.304688 240.265625 120.15625 240.410156 120.15625 240.589844 C 120.15625 240.769531 120.304688 240.914062 120.480469 240.914062 L 123.195312 240.914062 C 123.371094 240.914062 123.519531 240.769531 123.519531 240.589844 Z M 117.90625 239.03125 C 117.90625 238.851562 117.757812 238.707031 117.582031 238.707031 L 114.683594 238.707031 C 114.503906 238.707031 114.359375 238.851562 114.359375 239.03125 C 114.359375 239.210938 114.503906 239.355469 114.683594 239.355469 L 117.582031 239.355469 C 117.757812 239.355469 117.90625 239.210938 117.90625 239.03125 Z M 110.019531 251.574219 L 107.546875 251.574219 C 107.207031 251.574219 106.894531 251.851562 106.851562 252.191406 C 106.808594 252.53125 107.050781 252.808594 107.390625 252.808594 L 109.863281 252.808594 C 110.203125 252.808594 110.515625 252.53125 110.558594 252.191406 C 110.601562 251.851562 110.359375 251.574219 110.019531 251.574219 Z M 107.480469 247.347656 C 107.746094 247.347656 107.984375 247.132812 108.019531 246.867188 C 108.054688 246.605469 107.867188 246.386719 107.601562 246.386719 C 107.335938 246.386719 107.09375 246.605469 107.058594 246.867188 C 107.027344 247.132812 107.214844 247.347656 107.480469 247.347656 Z M 107.195312 240.589844 C 107.195312 240.769531 107.339844 240.914062 107.519531 240.914062 L 109.511719 240.914062 C 109.691406 240.914062 109.835938 240.769531 109.835938 240.589844 C 109.835938 240.410156 109.691406 240.265625 109.511719 240.265625 L 107.519531 240.265625 C 107.339844 240.265625 107.195312 240.410156 107.195312 240.589844 Z M 119.941406 223.601562 C 119.941406 223.421875 119.796875 223.277344 119.617188 223.277344 L 113.484375 223.277344 C 113.304688 223.277344 113.160156 223.421875 113.160156 223.601562 C 113.160156 223.78125 113.304688 223.925781 113.484375 223.925781 L 119.617188 223.925781 C 119.796875 223.925781 119.941406 223.78125 119.941406 223.601562 Z M 140.710938 258.726562 C 140.710938 258.90625 140.855469 259.050781 141.035156 259.050781 L 153.449219 259.050781 C 153.628906 259.050781 153.773438 258.90625 153.773438 258.726562 C 153.773438 258.546875 153.628906 258.402344 153.449219 258.402344 L 141.035156 258.402344 C 140.855469 258.402344 140.710938 258.546875 140.710938 258.726562 Z M 143.527344 236.328125 C 143.527344 236.503906 143.671875 236.652344 143.851562 236.652344 L 147.125 236.652344 C 147.304688 236.652344 147.449219 236.503906 147.449219 236.328125 C 147.449219 236.148438 147.304688 236.003906 147.125 236.003906 L 143.851562 236.003906 C 143.671875 236.003906 143.527344 236.148438 143.527344 236.328125 Z M 144.59375 227.84375 C 144.59375 228.023438 144.738281 228.167969 144.917969 228.167969 L 148.863281 228.167969 C 149.042969 228.167969 149.1875 228.023438 149.1875 227.84375 C 149.1875 227.664062 149.042969 227.519531 148.863281 227.519531 L 144.917969 227.519531 C 144.738281 227.519531 144.59375 227.664062 144.59375 227.84375 Z M 145.390625 221.480469 C 145.390625 221.660156 145.535156 221.804688 145.714844 221.804688 L 148.449219 221.804688 C 148.628906 221.804688 148.773438 221.660156 148.773438 221.480469 C 148.773438 221.304688 148.628906 221.15625 148.449219 221.15625 L 145.714844 221.15625 C 145.535156 221.15625 145.390625 221.304688 145.390625 221.480469 Z M 156.261719 227.84375 C 156.261719 227.664062 156.113281 227.519531 155.933594 227.519531 L 150.28125 227.519531 C 150.101562 227.519531 149.957031 227.664062 149.957031 227.84375 C 149.957031 228.023438 150.101562 228.167969 150.28125 228.167969 L 155.933594 228.167969 C 156.113281 228.167969 156.261719 228.023438 156.261719 227.84375 Z M 157.121094 234.53125 C 157.300781 234.53125 157.445312 234.386719 157.445312 234.207031 C 157.445312 234.027344 157.300781 233.882812 157.121094 233.882812 L 152.339844 233.882812 C 152.160156 233.882812 152.015625 234.027344 152.015625 234.207031 C 152.015625 234.386719 152.160156 234.53125 152.339844 234.53125 Z M 177.457031 213.320312 L 172.429688 258.667969 C 172.28125 260.007812 171.152344 261.015625 169.804688 261.015625 L 99.402344 261.015625 C 98.640625 261.015625 97.941406 260.703125 97.433594 260.136719 C 97.332031 260.023438 97.246094 259.90625 97.167969 259.78125 C 96.433594 264.976562 92.933594 270.835938 92.933594 275.40625 C 92.933594 280.429688 96.757812 287.628906 96.757812 287.628906 C 96.757812 287.628906 95.398438 298.867188 81.613281 298.867188 C 76.632812 298.867188 73.113281 297.996094 71.304688 297.40625 C 70.367188 297.097656 69.671875 296.308594 69.460938 295.34375 C 67.859375 288.070312 68.945312 277.742188 70.074219 274.109375 C 70.839844 271.65625 69.941406 259.082031 66.992188 250.117188 C 65.488281 245.546875 68.894531 240.839844 73.707031 240.839844 L 74.847656 237.214844 C 74.847656 237.214844 78.472656 235.460938 82.300781 236.238281 C 86.132812 237.019531 87.960938 238.070312 89.390625 238.273438 L 88.464844 240.859375 C 90.042969 241 91.457031 241.941406 92.179688 243.375 C 93.738281 246.46875 96.21875 251.789062 97.03125 255.785156 L 101.800781 212.738281 C 101.949219 211.394531 103.078125 210.386719 104.429688 210.386719 L 174.832031 210.386719 C 175.59375 210.386719 176.292969 210.699219 176.800781 211.265625 C 177.308594 211.832031 177.542969 212.5625 177.457031 213.320312 Z M 111.515625 216.515625 C 111.25 216.515625 111.007812 216.730469 110.976562 216.996094 C 110.941406 217.261719 111.128906 217.476562 111.394531 217.476562 C 111.660156 217.476562 111.902344 217.261719 111.933594 216.996094 C 111.96875 216.730469 111.78125 216.515625 111.515625 216.515625 Z M 113.332031 216.515625 C 113.066406 216.515625 112.824219 216.730469 112.792969 216.996094 C 112.761719 217.261719 112.949219 217.476562 113.210938 217.476562 C 113.476562 217.476562 113.71875 217.261719 113.753906 216.996094 C 113.785156 216.730469 113.597656 216.515625 113.332031 216.515625 Z M 63.582031 215.03125 L 59.71875 215.03125 L 59.71875 223.460938 L 63.582031 223.460938 Z M 50.023438 223.460938 L 53.886719 223.460938 L 53.886719 216.199219 L 50.023438 216.199219 Z M 44.195312 223.460938 L 40.328125 223.460938 L 40.328125 218.734375 L 44.195312 218.734375 L 44.195312 223.460938 " fill-opacity="1" fill-rule="nonzero"/></g><g clip-path="url(#ba5592a1f0)"><path fill="#ffffff" d="M 53.261719 190.519531 C 54.988281 190.519531 56.386719 189.121094 56.386719 187.394531 C 56.386719 185.667969 54.988281 184.269531 53.261719 184.269531 C 51.539062 184.269531 50.140625 185.667969 50.140625 187.394531 C 50.140625 189.121094 51.539062 190.519531 53.261719 190.519531 Z M 44.074219 174.527344 C 44.074219 175 44.453125 175.378906 44.921875 175.378906 C 45.390625 175.378906 45.769531 175 45.769531 174.527344 C 45.769531 174.0625 45.390625 173.679688 44.921875 173.679688 C 44.453125 173.679688 44.074219 174.0625 44.074219 174.527344 Z M 46.226562 181.957031 L 47.367188 183.742188 C 46.976562 184.371094 46.6875 185.066406 46.515625 185.804688 L 44.441406 186.261719 L 44.441406 188.523438 L 46.515625 188.980469 C 46.6875 189.722656 46.976562 190.417969 47.367188 191.042969 L 46.226562 192.832031 L 47.824219 194.433594 L 49.613281 193.289062 C 50.242188 193.679688 50.933594 193.96875 51.675781 194.144531 L 52.132812 196.214844 L 54.394531 196.214844 L 54.851562 194.144531 C 55.589844 193.96875 56.285156 193.679688 56.914062 193.289062 L 58.703125 194.433594 L 60.304688 192.832031 L 59.160156 191.042969 C 59.546875 190.417969 59.839844 189.722656 60.015625 188.980469 L 62.085938 188.523438 L 62.085938 186.261719 L 60.015625 185.804688 C 59.839844 185.066406 59.546875 184.371094 59.160156 183.742188 L 60.304688 181.957031 L 58.703125 180.355469 L 56.914062 181.496094 C 56.285156 181.109375 55.589844 180.816406 54.851562 180.644531 L 54.394531 178.570312 L 52.132812 178.570312 L 51.675781 180.644531 C 50.933594 180.816406 50.242188 181.109375 49.613281 181.496094 L 47.824219 180.355469 Z M 64.125 189.414062 L 72.953125 189.414062 L 72.953125 187.394531 L 64.125 187.394531 Z M 64.125 180.59375 L 72.953125 180.59375 L 72.953125 178.570312 L 64.125 178.570312 Z M 54.894531 198.683594 L 49.871094 198.683594 L 49.871094 199.007812 L 54.894531 199.007812 Z M 54.894531 199.765625 L 52.789062 199.765625 L 52.789062 200.089844 L 54.894531 200.089844 Z M 51.972656 200.089844 L 51.972656 199.765625 L 49.871094 199.765625 L 49.871094 200.089844 Z M 53.171875 200.847656 L 49.871094 200.847656 L 49.871094 201.171875 L 53.171875 201.171875 Z M 76.839844 196.773438 L 82.714844 196.773438 L 82.714844 187.816406 L 76.839844 187.816406 Z M 76.839844 187.488281 L 82.714844 187.488281 L 82.714844 178.535156 L 76.839844 178.535156 Z M 85.96875 197.539062 C 85.96875 197.871094 86.242188 198.140625 86.574219 198.140625 L 86.632812 198.140625 C 86.964844 198.140625 87.234375 197.871094 87.234375 197.539062 C 87.234375 197.203125 86.964844 196.933594 86.632812 196.933594 L 86.574219 196.933594 C 86.242188 196.933594 85.96875 197.203125 85.96875 197.539062 Z M 85.96875 194.714844 C 85.96875 195.046875 86.242188 195.320312 86.574219 195.320312 L 86.632812 195.320312 C 86.964844 195.320312 87.234375 195.046875 87.234375 194.714844 C 87.234375 194.378906 86.964844 194.109375 86.632812 194.109375 L 86.574219 194.109375 C 86.242188 194.109375 85.96875 194.378906 85.96875 194.714844 Z M 85.96875 191.890625 C 85.96875 192.222656 86.242188 192.492188 86.574219 192.492188 L 86.632812 192.492188 C 86.964844 192.492188 87.234375 192.222656 87.234375 191.890625 C 87.234375 191.554688 86.964844 191.285156 86.632812 191.285156 L 86.574219 191.285156 C 86.242188 191.285156 85.96875 191.554688 85.96875 191.890625 Z M 85.96875 189.066406 C 85.96875 189.398438 86.242188 189.667969 86.574219 189.667969 L 86.632812 189.667969 C 86.964844 189.667969 87.234375 189.398438 87.234375 189.066406 C 87.234375 188.730469 86.964844 188.460938 86.632812 188.460938 L 86.574219 188.460938 C 86.242188 188.460938 85.96875 188.730469 85.96875 189.066406 Z M 85.96875 186.238281 C 85.96875 186.574219 86.242188 186.84375 86.574219 186.84375 L 86.632812 186.84375 C 86.964844 186.84375 87.234375 186.574219 87.234375 186.238281 C 87.234375 185.90625 86.964844 185.636719 86.632812 185.636719 L 86.574219 185.636719 C 86.242188 185.636719 85.96875 185.90625 85.96875 186.238281 Z M 85.96875 183.417969 C 85.96875 183.75 86.242188 184.019531 86.574219 184.019531 L 86.632812 184.019531 C 86.964844 184.019531 87.234375 183.75 87.234375 183.417969 C 87.234375 183.082031 86.964844 182.8125 86.632812 182.8125 L 86.574219 182.8125 C 86.242188 182.8125 85.96875 183.082031 85.96875 183.417969 Z M 85.96875 180.59375 C 85.96875 180.925781 86.242188 181.195312 86.574219 181.195312 L 86.632812 181.195312 C 86.964844 181.195312 87.234375 180.925781 87.234375 180.59375 C 87.234375 180.257812 86.964844 179.988281 86.632812 179.988281 L 86.574219 179.988281 C 86.242188 179.988281 85.96875 180.257812 85.96875 180.59375 Z M 85.96875 177.765625 C 85.96875 178.101562 86.242188 178.371094 86.574219 178.371094 L 86.632812 178.371094 C 86.964844 178.371094 87.234375 178.101562 87.234375 177.765625 C 87.234375 177.433594 86.964844 177.164062 86.632812 177.164062 L 86.574219 177.164062 C 86.242188 177.164062 85.96875 177.433594 85.96875 177.765625 Z M 85.96875 174.527344 C 85.96875 175 86.351562 175.378906 86.820312 175.378906 C 87.289062 175.378906 87.667969 175 87.667969 174.527344 C 87.667969 174.0625 87.289062 173.679688 86.820312 173.679688 C 86.351562 173.679688 85.96875 174.0625 85.96875 174.527344 Z M 88.539062 197.539062 C 88.539062 197.871094 88.8125 198.140625 89.144531 198.140625 L 94.269531 198.140625 C 94.605469 198.140625 94.875 197.871094 94.875 197.539062 C 94.875 197.203125 94.605469 196.933594 94.269531 196.933594 L 89.144531 196.933594 C 88.8125 196.933594 88.539062 197.203125 88.539062 197.539062 Z M 88.539062 194.714844 C 88.539062 195.046875 88.8125 195.320312 89.144531 195.320312 L 100.113281 195.320312 C 100.445312 195.320312 100.71875 195.046875 100.71875 194.714844 C 100.71875 194.378906 100.445312 194.109375 100.113281 194.109375 L 89.144531 194.109375 C 88.8125 194.109375 88.539062 194.378906 88.539062 194.714844 Z M 88.539062 191.890625 C 88.539062 192.222656 88.8125 192.492188 89.144531 192.492188 L 96.175781 192.492188 C 96.507812 192.492188 96.78125 192.222656 96.78125 191.890625 C 96.78125 191.554688 96.507812 191.285156 96.175781 191.285156 L 89.144531 191.285156 C 88.8125 191.285156 88.539062 191.554688 88.539062 191.890625 Z M 88.539062 189.066406 C 88.539062 189.398438 88.8125 189.667969 89.144531 189.667969 L 98.425781 189.667969 C 98.757812 189.667969 99.027344 189.398438 99.027344 189.066406 C 99.027344 188.730469 98.757812 188.460938 98.425781 188.460938 L 89.144531 188.460938 C 88.8125 188.460938 88.539062 188.730469 88.539062 189.066406 Z M 88.539062 186.238281 C 88.539062 186.574219 88.8125 186.84375 89.144531 186.84375 L 101.324219 186.84375 C 101.660156 186.84375 101.929688 186.574219 101.929688 186.238281 C 101.929688 185.90625 101.660156 185.636719 101.324219 185.636719 L 89.144531 185.636719 C 88.8125 185.636719 88.539062 185.90625 88.539062 186.238281 Z M 88.539062 183.417969 C 88.539062 183.75 88.8125 184.019531 89.144531 184.019531 L 91.628906 184.019531 C 91.964844 184.019531 92.234375 183.75 92.234375 183.417969 C 92.234375 183.082031 91.964844 182.8125 91.628906 182.8125 L 89.144531 182.8125 C 88.8125 182.8125 88.539062 183.082031 88.539062 183.417969 Z M 88.539062 180.59375 C 88.539062 180.925781 88.8125 181.195312 89.144531 181.195312 L 97.515625 181.195312 C 97.851562 181.195312 98.121094 180.925781 98.121094 180.59375 C 98.121094 180.257812 97.851562 179.988281 97.515625 179.988281 L 89.144531 179.988281 C 88.8125 179.988281 88.539062 180.257812 88.539062 180.59375 Z M 88.539062 177.765625 C 88.539062 178.101562 88.8125 178.371094 89.144531 178.371094 L 92.988281 178.371094 C 93.320312 178.371094 93.59375 178.101562 93.59375 177.765625 C 93.59375 177.433594 93.320312 177.164062 92.988281 177.164062 L 89.144531 177.164062 C 88.8125 177.164062 88.539062 177.433594 88.539062 177.765625 Z M 89.183594 174.527344 C 89.183594 175 89.566406 175.378906 90.035156 175.378906 C 90.503906 175.378906 90.882812 175 90.882812 174.527344 C 90.882812 174.0625 90.503906 173.679688 90.035156 173.679688 C 89.566406 173.679688 89.183594 174.0625 89.183594 174.527344 Z M 106.808594 182.8125 L 94.625 182.8125 C 94.292969 182.8125 94.023438 183.082031 94.023438 183.417969 C 94.023438 183.75 94.292969 184.019531 94.625 184.019531 L 106.808594 184.019531 C 107.140625 184.019531 107.414062 183.75 107.414062 183.417969 C 107.414062 183.082031 107.140625 182.8125 106.808594 182.8125 Z M 107.066406 186.238281 C 107.066406 185.90625 106.796875 185.636719 106.464844 185.636719 L 103.976562 185.636719 C 103.644531 185.636719 103.371094 185.90625 103.371094 186.238281 C 103.371094 186.574219 103.644531 186.84375 103.976562 186.84375 L 106.464844 186.84375 C 106.796875 186.84375 107.066406 186.574219 107.066406 186.238281 Z M 106.765625 191.890625 C 106.765625 191.554688 106.492188 191.285156 106.160156 191.285156 L 103.671875 191.285156 C 103.339844 191.285156 103.070312 191.554688 103.070312 191.890625 C 103.070312 192.222656 103.339844 192.492188 103.671875 192.492188 L 106.160156 192.492188 C 106.492188 192.492188 106.765625 192.222656 106.765625 191.890625 Z M 101.742188 191.890625 C 101.742188 191.554688 101.472656 191.285156 101.140625 191.285156 L 98.652344 191.285156 C 98.320312 191.285156 98.050781 191.554688 98.050781 191.890625 C 98.050781 192.222656 98.320312 192.492188 98.652344 192.492188 L 101.140625 192.492188 C 101.472656 192.492188 101.742188 192.222656 101.742188 191.890625 Z M 104.136719 197.539062 C 104.136719 197.203125 103.867188 196.933594 103.53125 196.933594 L 96.503906 196.933594 C 96.167969 196.933594 95.898438 197.203125 95.898438 197.539062 C 95.898438 197.871094 96.167969 198.140625 96.503906 198.140625 L 103.53125 198.140625 C 103.867188 198.140625 104.136719 197.871094 104.136719 197.539062 Z M 120.773438 196.773438 L 128.460938 196.773438 L 128.460938 187.816406 L 120.773438 187.816406 Z M 120.773438 187.488281 L 128.460938 187.488281 L 128.460938 178.535156 L 120.773438 178.535156 Z M 132.113281 196.214844 L 163.777344 196.214844 L 163.777344 179.988281 L 132.113281 179.988281 Z M 135.328125 174.527344 C 135.328125 175 135.707031 175.378906 136.179688 175.378906 C 136.648438 175.378906 137.027344 175 137.027344 174.527344 C 137.027344 174.0625 136.648438 173.679688 136.179688 173.679688 C 135.707031 173.679688 135.328125 174.0625 135.328125 174.527344 Z M 157.523438 197.980469 L 152.496094 197.980469 L 152.496094 198.304688 L 157.523438 198.304688 Z M 157.523438 199.0625 L 155.417969 199.0625 L 155.417969 199.386719 L 157.523438 199.386719 Z M 154.601562 199.386719 L 154.601562 199.0625 L 152.496094 199.0625 L 152.496094 199.386719 Z M 155.800781 200.144531 L 152.496094 200.144531 L 152.496094 200.46875 L 155.800781 200.46875 Z M 147.136719 197.980469 L 142.109375 197.980469 L 142.109375 198.304688 L 147.136719 198.304688 Z M 147.136719 199.0625 L 145.03125 199.0625 L 145.03125 199.386719 L 147.136719 199.386719 Z M 144.214844 199.386719 L 144.214844 199.0625 L 142.109375 199.0625 L 142.109375 199.386719 Z M 145.414062 200.144531 L 142.109375 200.144531 L 142.109375 200.46875 L 145.414062 200.46875 Z M 38.78125 203.324219 L 38.78125 173.179688 C 38.78125 172.28125 39.507812 171.554688 40.402344 171.554688 L 75.21875 171.554688 C 76.113281 171.554688 76.839844 172.28125 76.839844 173.179688 L 76.839844 178.210938 L 82.714844 178.210938 L 82.714844 173.179688 C 82.714844 172.28125 83.441406 171.554688 84.335938 171.554688 L 119.152344 171.554688 C 120.046875 171.554688 120.773438 172.28125 120.773438 173.179688 L 120.773438 178.210938 L 128.460938 178.210938 L 128.460938 173.179688 C 128.460938 172.28125 129.1875 171.554688 130.082031 171.554688 L 164.898438 171.554688 C 165.796875 171.554688 166.519531 172.28125 166.519531 173.179688 L 166.519531 196.773438 L 170.714844 196.773438 C 170.78125 196.878906 170.839844 196.988281 170.90625 197.097656 L 166.519531 197.097656 L 166.519531 203.324219 C 166.519531 204.222656 165.796875 204.949219 164.898438 204.949219 L 130.082031 204.949219 C 129.1875 204.949219 128.460938 204.222656 128.460938 203.324219 L 128.460938 197.097656 L 120.773438 197.097656 L 120.773438 199.949219 C 120.773438 200.84375 120.046875 201.570312 119.152344 201.570312 L 84.335938 201.570312 C 83.441406 201.570312 82.714844 200.84375 82.714844 199.949219 L 82.714844 197.097656 L 76.839844 197.097656 L 76.839844 203.324219 C 76.839844 204.222656 76.113281 204.949219 75.21875 204.949219 L 40.402344 204.949219 C 39.507812 204.949219 38.78125 204.222656 38.78125 203.324219 Z M 150.53125 211.910156 C 150.355469 211.910156 150.207031 212.058594 150.207031 212.234375 C 150.207031 212.414062 150.355469 212.558594 150.53125 212.558594 L 157.089844 212.558594 C 157.269531 212.558594 157.414062 212.414062 157.414062 212.234375 C 157.414062 212.058594 157.269531 211.910156 157.089844 211.910156 Z M 157.632812 250.242188 C 157.632812 250.0625 157.488281 249.917969 157.308594 249.917969 L 148.707031 249.917969 C 148.527344 249.917969 148.378906 250.0625 148.378906 250.242188 C 148.378906 250.421875 148.527344 250.566406 148.707031 250.566406 L 157.308594 250.566406 C 157.488281 250.566406 157.632812 250.421875 157.632812 250.242188 Z M 154.039062 256.605469 C 154.039062 256.425781 153.894531 256.28125 153.714844 256.28125 L 141.300781 256.28125 C 141.121094 256.28125 140.976562 256.425781 140.976562 256.605469 C 140.976562 256.785156 141.121094 256.929688 141.300781 256.929688 L 153.714844 256.929688 C 153.894531 256.929688 154.039062 256.785156 154.039062 256.605469 Z M 153.773438 258.726562 C 153.773438 258.546875 153.628906 258.402344 153.449219 258.402344 L 141.035156 258.402344 C 140.855469 258.402344 140.710938 258.546875 140.710938 258.726562 C 140.710938 258.90625 140.855469 259.050781 141.035156 259.050781 L 153.449219 259.050781 C 153.628906 259.050781 153.773438 258.90625 153.773438 258.726562 Z M 141.507812 252.363281 C 141.507812 252.542969 141.65625 252.6875 141.835938 252.6875 L 151.863281 252.6875 C 152.042969 252.6875 152.191406 252.542969 152.191406 252.363281 C 152.191406 252.183594 152.042969 252.039062 151.863281 252.039062 L 141.835938 252.039062 C 141.65625 252.039062 141.507812 252.183594 141.507812 252.363281 Z M 141.777344 250.242188 C 141.777344 250.421875 141.921875 250.566406 142.101562 250.566406 L 146.402344 250.566406 C 146.582031 250.566406 146.730469 250.421875 146.730469 250.242188 C 146.730469 250.0625 146.582031 249.917969 146.402344 249.917969 L 142.101562 249.917969 C 141.921875 249.917969 141.777344 250.0625 141.777344 250.242188 Z M 142.042969 248.121094 C 142.042969 248.300781 142.1875 248.445312 142.367188 248.445312 L 154.78125 248.445312 C 154.960938 248.445312 155.105469 248.300781 155.105469 248.121094 C 155.105469 247.941406 154.960938 247.796875 154.78125 247.796875 L 142.367188 247.796875 C 142.1875 247.796875 142.042969 247.941406 142.042969 248.121094 Z M 139.65625 248.121094 C 139.65625 247.941406 139.507812 247.796875 139.332031 247.796875 L 137.164062 247.796875 C 136.988281 247.796875 136.839844 247.941406 136.839844 248.121094 C 136.839844 248.300781 136.988281 248.445312 137.164062 248.445312 L 139.332031 248.445312 C 139.507812 248.445312 139.65625 248.300781 139.65625 248.121094 Z M 139.386719 250.242188 C 139.386719 250.0625 139.242188 249.917969 139.0625 249.917969 L 136.898438 249.917969 C 136.71875 249.917969 136.574219 250.0625 136.574219 250.242188 C 136.574219 250.421875 136.71875 250.566406 136.898438 250.566406 L 139.0625 250.566406 C 139.242188 250.566406 139.386719 250.421875 139.386719 250.242188 Z M 139.121094 252.363281 C 139.121094 252.183594 138.976562 252.039062 138.796875 252.039062 L 136.632812 252.039062 C 136.453125 252.039062 136.308594 252.183594 136.308594 252.363281 C 136.308594 252.542969 136.453125 252.6875 136.632812 252.6875 L 138.796875 252.6875 C 138.976562 252.6875 139.121094 252.542969 139.121094 252.363281 Z M 138.589844 256.605469 C 138.589844 256.425781 138.441406 256.28125 138.265625 256.28125 L 136.097656 256.28125 C 135.921875 256.28125 135.773438 256.425781 135.773438 256.605469 C 135.773438 256.785156 135.921875 256.929688 136.097656 256.929688 L 138.265625 256.929688 C 138.441406 256.929688 138.589844 256.785156 138.589844 256.605469 Z M 138.320312 258.726562 C 138.320312 258.546875 138.175781 258.402344 137.996094 258.402344 L 135.832031 258.402344 C 135.652344 258.402344 135.507812 258.546875 135.507812 258.726562 C 135.507812 258.90625 135.652344 259.050781 135.832031 259.050781 L 137.996094 259.050781 C 138.175781 259.050781 138.320312 258.90625 138.320312 258.726562 Z M 161.925781 246.816406 L 160.140625 261.015625 L 156.246094 261.015625 C 156.277344 260.96875 156.300781 260.910156 156.300781 260.847656 C 156.300781 260.667969 156.15625 260.523438 155.976562 260.523438 L 147.371094 260.523438 C 147.195312 260.523438 147.046875 260.667969 147.046875 260.847656 C 147.046875 260.910156 147.070312 260.96875 147.105469 261.015625 L 145.339844 261.015625 C 145.371094 260.96875 145.394531 260.910156 145.394531 260.847656 C 145.394531 260.667969 145.25 260.523438 145.070312 260.523438 L 140.769531 260.523438 C 140.589844 260.523438 140.445312 260.667969 140.445312 260.847656 C 140.445312 260.910156 140.46875 260.96875 140.5 261.015625 L 138 261.015625 C 138.03125 260.96875 138.054688 260.910156 138.054688 260.847656 C 138.054688 260.667969 137.910156 260.523438 137.730469 260.523438 L 135.566406 260.523438 C 135.386719 260.523438 135.242188 260.667969 135.242188 260.847656 C 135.242188 260.910156 135.265625 260.96875 135.296875 261.015625 L 133.164062 261.015625 L 134.949219 246.816406 C 135.0625 245.921875 135.878906 245.195312 136.777344 245.195312 L 160.507812 245.195312 C 161.402344 245.195312 162.039062 245.921875 161.925781 246.816406 Z M 115.847656 251.574219 L 113.375 251.574219 C 113.035156 251.574219 112.722656 251.851562 112.683594 252.191406 C 112.640625 252.53125 112.878906 252.808594 113.222656 252.808594 L 115.695312 252.808594 C 116.035156 252.808594 116.347656 252.53125 116.390625 252.191406 C 116.429688 251.851562 116.191406 251.574219 115.847656 251.574219 Z M 110.019531 251.574219 L 107.546875 251.574219 C 107.207031 251.574219 106.894531 251.851562 106.851562 252.191406 C 106.808594 252.53125 107.050781 252.808594 107.390625 252.808594 L 109.863281 252.808594 C 110.203125 252.808594 110.515625 252.53125 110.558594 252.191406 C 110.601562 251.851562 110.359375 251.574219 110.019531 251.574219 Z M 105.78125 246.386719 C 105.515625 246.386719 105.273438 246.605469 105.242188 246.867188 C 105.210938 247.132812 105.398438 247.347656 105.660156 247.347656 C 105.925781 247.347656 106.167969 247.132812 106.203125 246.867188 C 106.238281 246.605469 106.046875 246.386719 105.78125 246.386719 Z M 107.480469 247.347656 C 107.746094 247.347656 107.984375 247.132812 108.019531 246.867188 C 108.054688 246.605469 107.867188 246.386719 107.601562 246.386719 C 107.335938 246.386719 107.09375 246.605469 107.058594 246.867188 C 107.027344 247.132812 107.214844 247.347656 107.480469 247.347656 Z M 109.296875 247.347656 C 109.5625 247.347656 109.804688 247.132812 109.835938 246.867188 C 109.871094 246.605469 109.683594 246.386719 109.417969 246.386719 C 109.152344 246.386719 108.910156 246.605469 108.878906 246.867188 C 108.84375 247.132812 109.03125 247.347656 109.296875 247.347656 Z M 114.351562 249.367188 L 109.515625 249.367188 C 109.335938 249.367188 109.191406 249.511719 109.191406 249.691406 C 109.191406 249.871094 109.335938 250.015625 109.515625 250.015625 L 114.351562 250.015625 C 114.53125 250.015625 114.675781 249.871094 114.675781 249.691406 C 114.675781 249.511719 114.53125 249.367188 114.351562 249.367188 Z M 119.265625 245.191406 C 120.164062 245.191406 120.800781 245.917969 120.6875 246.8125 L 120.003906 252.222656 C 119.894531 253.121094 119.074219 253.847656 118.179688 253.847656 L 104.394531 253.847656 C 103.5 253.847656 102.863281 253.121094 102.976562 252.222656 L 103.65625 246.8125 C 103.769531 245.917969 104.585938 245.191406 105.484375 245.191406 Z M 111.933594 216.996094 C 111.96875 216.730469 111.78125 216.515625 111.515625 216.515625 C 111.25 216.515625 111.007812 216.730469 110.976562 216.996094 C 110.941406 217.261719 111.128906 217.476562 111.394531 217.476562 C 111.660156 217.476562 111.902344 217.261719 111.933594 216.996094 Z M 129.070312 240.589844 C 129.070312 240.410156 128.925781 240.265625 128.746094 240.265625 L 127.089844 240.265625 C 126.90625 240.265625 126.761719 240.410156 126.761719 240.589844 C 126.761719 240.769531 126.90625 240.914062 127.089844 240.914062 L 128.746094 240.914062 C 128.925781 240.914062 129.070312 240.769531 129.070312 240.589844 Z M 126.691406 223.925781 C 126.871094 223.925781 127.015625 223.78125 127.015625 223.601562 C 127.015625 223.421875 126.871094 223.277344 126.691406 223.277344 L 121.859375 223.277344 C 121.679688 223.277344 121.535156 223.421875 121.535156 223.601562 C 121.535156 223.78125 121.679688 223.925781 121.859375 223.925781 Z M 125.75 226.445312 L 113.992188 226.445312 C 113.515625 226.445312 113.078125 226.832031 113.019531 227.308594 L 112.664062 230.136719 C 112.605469 230.613281 112.941406 231.003906 113.421875 231.003906 L 125.179688 231.003906 C 125.65625 231.003906 126.09375 230.613281 126.152344 230.136719 L 126.507812 227.308594 C 126.566406 226.832031 126.226562 226.445312 125.75 226.445312 Z M 120.679688 239.355469 L 122.335938 239.355469 C 122.515625 239.355469 122.660156 239.210938 122.660156 239.03125 C 122.660156 238.851562 122.515625 238.707031 122.335938 238.707031 L 120.679688 238.707031 C 120.5 238.707031 120.355469 238.851562 120.355469 239.03125 C 120.355469 239.210938 120.5 239.355469 120.679688 239.355469 Z M 123.519531 240.589844 C 123.519531 240.410156 123.371094 240.265625 123.195312 240.265625 L 120.480469 240.265625 C 120.304688 240.265625 120.15625 240.410156 120.15625 240.589844 C 120.15625 240.769531 120.304688 240.914062 120.480469 240.914062 L 123.195312 240.914062 C 123.371094 240.914062 123.519531 240.769531 123.519531 240.589844 Z M 117.90625 239.03125 C 117.90625 238.851562 117.757812 238.707031 117.582031 238.707031 L 114.683594 238.707031 C 114.503906 238.707031 114.359375 238.851562 114.359375 239.03125 C 114.359375 239.210938 114.503906 239.355469 114.683594 239.355469 L 117.582031 239.355469 C 117.757812 239.355469 117.90625 239.210938 117.90625 239.03125 Z M 116.472656 240.589844 C 116.472656 240.410156 116.328125 240.265625 116.148438 240.265625 L 114.488281 240.265625 C 114.308594 240.265625 114.164062 240.410156 114.164062 240.589844 C 114.164062 240.769531 114.308594 240.914062 114.488281 240.914062 L 116.148438 240.914062 C 116.328125 240.914062 116.472656 240.769531 116.472656 240.589844 Z M 111.359375 239.03125 C 111.359375 238.851562 111.214844 238.707031 111.03125 238.707031 L 107.714844 238.707031 C 107.539062 238.707031 107.390625 238.851562 107.390625 239.03125 C 107.390625 239.210938 107.539062 239.355469 107.714844 239.355469 L 111.03125 239.355469 C 111.214844 239.355469 111.359375 239.210938 111.359375 239.03125 Z M 109.835938 240.589844 C 109.835938 240.410156 109.691406 240.265625 109.511719 240.265625 L 107.519531 240.265625 C 107.339844 240.265625 107.195312 240.410156 107.195312 240.589844 C 107.195312 240.769531 107.339844 240.914062 107.519531 240.914062 L 109.511719 240.914062 C 109.691406 240.914062 109.835938 240.769531 109.835938 240.589844 Z M 113.160156 223.601562 C 113.160156 223.78125 113.304688 223.925781 113.484375 223.925781 L 119.617188 223.925781 C 119.796875 223.925781 119.941406 223.78125 119.941406 223.601562 C 119.941406 223.421875 119.796875 223.277344 119.617188 223.277344 L 113.484375 223.277344 C 113.304688 223.277344 113.160156 223.421875 113.160156 223.601562 Z M 126.957031 239.03125 C 126.957031 239.210938 127.105469 239.355469 127.285156 239.355469 L 130.179688 239.355469 C 130.359375 239.355469 130.503906 239.210938 130.503906 239.03125 C 130.503906 238.851562 130.359375 238.707031 130.179688 238.707031 L 127.285156 238.707031 C 127.105469 238.707031 126.957031 238.851562 126.957031 239.03125 Z M 129.679688 242.820312 L 105.949219 242.820312 C 105.050781 242.820312 104.417969 242.09375 104.53125 241.195312 L 107.273438 219.359375 L 134.25 219.359375 L 134.640625 216.253906 L 131.507812 241.195312 C 131.394531 242.09375 130.578125 242.820312 129.679688 242.820312 Z M 166.023438 258.714844 L 162.746094 258.714844 C 162.566406 258.714844 162.421875 258.863281 162.421875 259.042969 C 162.421875 259.21875 162.566406 259.367188 162.746094 259.367188 L 166.023438 259.367188 C 166.199219 259.367188 166.347656 259.21875 166.347656 259.042969 C 166.347656 258.863281 166.199219 258.714844 166.023438 258.714844 Z M 167.621094 256.59375 L 163.015625 256.59375 C 162.835938 256.59375 162.691406 256.742188 162.691406 256.917969 C 162.691406 257.101562 162.835938 257.246094 163.015625 257.246094 L 167.621094 257.246094 C 167.800781 257.246094 167.945312 257.101562 167.945312 256.917969 C 167.945312 256.742188 167.800781 256.59375 167.621094 256.59375 Z M 163.28125 255.125 L 166.015625 255.125 C 166.195312 255.125 166.339844 254.980469 166.339844 254.800781 C 166.339844 254.621094 166.195312 254.476562 166.015625 254.476562 L 163.28125 254.476562 C 163.101562 254.476562 162.957031 254.621094 162.957031 254.800781 C 162.957031 254.980469 163.101562 255.125 163.28125 255.125 Z M 169.210938 230.519531 L 165.9375 230.519531 C 165.753906 230.519531 165.609375 230.664062 165.609375 230.84375 C 165.609375 231.023438 165.753906 231.167969 165.9375 231.167969 L 169.210938 231.167969 C 169.386719 231.167969 169.535156 231.023438 169.535156 230.84375 C 169.535156 230.664062 169.386719 230.519531 169.210938 230.519531 Z M 170.808594 228.398438 L 166.203125 228.398438 C 166.023438 228.398438 165.878906 228.542969 165.878906 228.722656 C 165.878906 228.902344 166.023438 229.046875 166.203125 229.046875 L 170.808594 229.046875 C 170.988281 229.046875 171.132812 228.902344 171.132812 228.722656 C 171.132812 228.542969 170.988281 228.398438 170.808594 228.398438 Z M 166.46875 226.277344 C 166.289062 226.277344 166.144531 226.425781 166.144531 226.601562 C 166.144531 226.78125 166.289062 226.925781 166.46875 226.925781 L 169.203125 226.925781 C 169.382812 226.925781 169.527344 226.78125 169.527344 226.601562 C 169.527344 226.425781 169.382812 226.277344 169.203125 226.277344 Z M 161.515625 219.359375 C 161.515625 219.179688 161.371094 219.035156 161.191406 219.035156 L 155.722656 219.035156 C 155.542969 219.035156 155.398438 219.179688 155.398438 219.359375 C 155.398438 219.539062 155.542969 219.683594 155.722656 219.683594 L 161.191406 219.683594 C 161.371094 219.683594 161.515625 219.539062 161.515625 219.359375 Z M 158.777344 223.601562 C 158.777344 223.421875 158.632812 223.277344 158.453125 223.277344 L 153.671875 223.277344 C 153.496094 223.277344 153.347656 223.421875 153.347656 223.601562 C 153.347656 223.78125 153.496094 223.925781 153.671875 223.925781 L 158.453125 223.925781 C 158.632812 223.925781 158.777344 223.78125 158.777344 223.601562 Z M 157.445312 234.207031 C 157.445312 234.027344 157.300781 233.882812 157.121094 233.882812 L 152.339844 233.882812 C 152.160156 233.882812 152.015625 234.027344 152.015625 234.207031 C 152.015625 234.386719 152.160156 234.53125 152.339844 234.53125 L 157.121094 234.53125 C 157.300781 234.53125 157.445312 234.386719 157.445312 234.207031 Z M 155.070312 236.328125 C 155.070312 236.148438 154.925781 236.003906 154.746094 236.003906 L 148.972656 236.003906 C 148.792969 236.003906 148.648438 236.148438 148.648438 236.328125 C 148.648438 236.503906 148.792969 236.652344 148.972656 236.652344 L 154.746094 236.652344 C 154.925781 236.652344 155.070312 236.503906 155.070312 236.328125 Z M 151.800781 238.445312 C 151.800781 238.269531 151.652344 238.121094 151.476562 238.121094 L 143.585938 238.121094 C 143.402344 238.121094 143.257812 238.269531 143.257812 238.445312 C 143.257812 238.625 143.402344 238.769531 143.585938 238.769531 L 151.476562 238.769531 C 151.652344 238.769531 151.800781 238.625 151.800781 238.445312 Z M 143.269531 219.359375 C 143.269531 219.179688 143.125 219.035156 142.945312 219.035156 L 140.78125 219.035156 C 140.601562 219.035156 140.457031 219.179688 140.457031 219.359375 C 140.457031 219.539062 140.601562 219.683594 140.78125 219.683594 L 142.945312 219.683594 C 143.125 219.683594 143.269531 219.539062 143.269531 219.359375 Z M 143.003906 221.480469 C 143.003906 221.304688 142.859375 221.15625 142.675781 221.15625 L 140.515625 221.15625 C 140.335938 221.15625 140.191406 221.304688 140.191406 221.480469 C 140.191406 221.660156 140.335938 221.804688 140.515625 221.804688 L 142.675781 221.804688 C 142.859375 221.804688 143.003906 221.660156 143.003906 221.480469 Z M 142.734375 223.601562 C 142.734375 223.421875 142.589844 223.277344 142.410156 223.277344 L 140.25 223.277344 C 140.066406 223.277344 139.921875 223.421875 139.921875 223.601562 C 139.921875 223.78125 140.066406 223.925781 140.25 223.925781 L 142.410156 223.925781 C 142.589844 223.925781 142.734375 223.78125 142.734375 223.601562 Z M 142.46875 225.722656 C 142.46875 225.542969 142.324219 225.398438 142.144531 225.398438 L 139.980469 225.398438 C 139.800781 225.398438 139.65625 225.542969 139.65625 225.722656 C 139.65625 225.902344 139.800781 226.046875 139.980469 226.046875 L 142.144531 226.046875 C 142.324219 226.046875 142.46875 225.902344 142.46875 225.722656 Z M 142.203125 227.84375 C 142.203125 227.664062 142.058594 227.519531 141.878906 227.519531 L 139.714844 227.519531 C 139.535156 227.519531 139.390625 227.664062 139.390625 227.84375 C 139.390625 228.023438 139.535156 228.167969 139.714844 228.167969 L 141.878906 228.167969 C 142.058594 228.167969 142.203125 228.023438 142.203125 227.84375 Z M 141.667969 232.085938 C 141.667969 231.90625 141.523438 231.761719 141.34375 231.761719 L 139.183594 231.761719 C 139 231.761719 138.855469 231.90625 138.855469 232.085938 C 138.855469 232.265625 139 232.410156 139.183594 232.410156 L 141.34375 232.410156 C 141.523438 232.410156 141.667969 232.265625 141.667969 232.085938 Z M 141.402344 234.207031 C 141.402344 234.027344 141.257812 233.882812 141.078125 233.882812 L 138.914062 233.882812 C 138.734375 233.882812 138.589844 234.027344 138.589844 234.207031 C 138.589844 234.386719 138.734375 234.53125 138.914062 234.53125 L 141.078125 234.53125 C 141.257812 234.53125 141.402344 234.386719 141.402344 234.207031 Z M 141.136719 236.328125 C 141.136719 236.148438 140.992188 236.003906 140.8125 236.003906 L 138.648438 236.003906 C 138.46875 236.003906 138.324219 236.148438 138.324219 236.328125 C 138.324219 236.503906 138.46875 236.652344 138.648438 236.652344 L 140.8125 236.652344 C 140.992188 236.652344 141.136719 236.503906 141.136719 236.328125 Z M 140.871094 238.445312 C 140.871094 238.269531 140.726562 238.121094 140.546875 238.121094 L 138.382812 238.121094 C 138.203125 238.121094 138.058594 238.269531 138.058594 238.445312 C 138.058594 238.625 138.203125 238.769531 138.382812 238.769531 L 140.546875 238.769531 C 140.726562 238.769531 140.871094 238.625 140.871094 238.445312 Z M 143.527344 236.328125 C 143.527344 236.503906 143.671875 236.652344 143.851562 236.652344 L 147.125 236.652344 C 147.304688 236.652344 147.449219 236.503906 147.449219 236.328125 C 147.449219 236.148438 147.304688 236.003906 147.125 236.003906 L 143.851562 236.003906 C 143.671875 236.003906 143.527344 236.148438 143.527344 236.328125 Z M 143.792969 234.207031 C 143.792969 234.386719 143.9375 234.53125 144.117188 234.53125 L 150.492188 234.53125 C 150.671875 234.53125 150.816406 234.386719 150.816406 234.207031 C 150.816406 234.027344 150.671875 233.882812 150.492188 233.882812 L 144.117188 233.882812 C 143.9375 233.882812 143.792969 234.027344 143.792969 234.207031 Z M 144.058594 232.085938 C 144.058594 232.265625 144.203125 232.410156 144.382812 232.410156 L 147.117188 232.410156 C 147.296875 232.410156 147.441406 232.265625 147.441406 232.085938 C 147.441406 231.90625 147.296875 231.761719 147.117188 231.761719 L 144.382812 231.761719 C 144.203125 231.761719 144.058594 231.90625 144.058594 232.085938 Z M 144.59375 227.84375 C 144.59375 228.023438 144.738281 228.167969 144.917969 228.167969 L 148.863281 228.167969 C 149.042969 228.167969 149.1875 228.023438 149.1875 227.84375 C 149.1875 227.664062 149.042969 227.519531 148.863281 227.519531 L 144.917969 227.519531 C 144.738281 227.519531 144.59375 227.664062 144.59375 227.84375 Z M 144.859375 225.722656 C 144.859375 225.902344 145.003906 226.046875 145.183594 226.046875 L 148.457031 226.046875 C 148.636719 226.046875 148.78125 225.902344 148.78125 225.722656 C 148.78125 225.542969 148.636719 225.398438 148.457031 225.398438 L 145.183594 225.398438 C 145.003906 225.398438 144.859375 225.542969 144.859375 225.722656 Z M 145.125 223.601562 C 145.125 223.78125 145.269531 223.925781 145.449219 223.925781 L 151.824219 223.925781 C 152.003906 223.925781 152.152344 223.78125 152.152344 223.601562 C 152.152344 223.421875 152.003906 223.277344 151.824219 223.277344 L 145.449219 223.277344 C 145.269531 223.277344 145.125 223.421875 145.125 223.601562 Z M 145.390625 221.480469 C 145.390625 221.660156 145.535156 221.804688 145.714844 221.804688 L 148.449219 221.804688 C 148.628906 221.804688 148.773438 221.660156 148.773438 221.480469 C 148.773438 221.304688 148.628906 221.15625 148.449219 221.15625 L 145.714844 221.15625 C 145.535156 221.15625 145.390625 221.304688 145.390625 221.480469 Z M 145.660156 219.359375 C 145.660156 219.539062 145.804688 219.683594 145.984375 219.683594 L 153.875 219.683594 C 154.050781 219.683594 154.199219 219.539062 154.199219 219.359375 C 154.199219 219.179688 154.050781 219.035156 153.875 219.035156 L 145.984375 219.035156 C 145.804688 219.035156 145.660156 219.179688 145.660156 219.359375 Z M 155.382812 221.804688 C 155.5625 221.804688 155.707031 221.660156 155.707031 221.480469 C 155.707031 221.304688 155.5625 221.15625 155.382812 221.15625 L 149.914062 221.15625 C 149.734375 221.15625 149.589844 221.304688 149.589844 221.480469 C 149.589844 221.660156 149.734375 221.804688 149.914062 221.804688 Z M 152.796875 225.722656 C 152.796875 225.542969 152.652344 225.398438 152.472656 225.398438 L 150.304688 225.398438 C 150.125 225.398438 149.980469 225.542969 149.980469 225.722656 C 149.980469 225.902344 150.125 226.046875 150.304688 226.046875 L 152.472656 226.046875 C 152.652344 226.046875 152.796875 225.902344 152.796875 225.722656 Z M 154.050781 231.761719 L 148.582031 231.761719 C 148.402344 231.761719 148.257812 231.90625 148.257812 232.085938 C 148.257812 232.265625 148.402344 232.410156 148.582031 232.410156 L 154.050781 232.410156 C 154.230469 232.410156 154.375 232.265625 154.375 232.085938 C 154.375 231.90625 154.230469 231.761719 154.050781 231.761719 Z M 155.933594 228.167969 C 156.113281 228.167969 156.261719 228.023438 156.261719 227.84375 C 156.261719 227.664062 156.113281 227.519531 155.933594 227.519531 L 150.28125 227.519531 C 150.101562 227.519531 149.957031 227.664062 149.957031 227.84375 C 149.957031 228.023438 150.101562 228.167969 150.28125 228.167969 Z M 162.632812 241.195312 C 162.519531 242.09375 161.703125 242.820312 160.808594 242.820312 L 137.074219 242.820312 C 136.179688 242.820312 135.542969 242.09375 135.65625 241.195312 L 138.792969 216.253906 C 138.902344 215.355469 139.722656 214.628906 140.617188 214.628906 L 164.347656 214.628906 C 165.246094 214.628906 165.882812 215.355469 165.769531 216.253906 Z M 77.792969 224.613281 L 77.492188 222.125 C 77.199219 219.707031 77.910156 217.421875 79.28125 215.65625 L 65.984375 215.65625 L 65.984375 224.578125 C 65.984375 224.589844 65.980469 224.601562 65.980469 224.613281 Z M 63.257812 215.355469 L 60.042969 215.355469 L 60.042969 223.136719 L 63.257812 223.136719 Z M 58.410156 215.65625 L 58.410156 214.382812 L 55.195312 214.382812 L 55.195312 223.136719 L 58.410156 223.136719 Z M 53.5625 216.523438 L 50.347656 216.523438 L 50.347656 223.136719 L 53.5625 223.136719 Z M 48.714844 220.433594 L 45.5 220.433594 L 45.5 223.136719 L 48.714844 223.136719 Z M 43.871094 219.058594 L 40.652344 219.058594 L 40.652344 223.136719 L 43.871094 223.136719 Z M 76.726562 234.21875 L 27.78125 234.21875 C 27.773438 234.109375 27.765625 234 27.757812 233.894531 L 76.816406 233.894531 L 77.707031 230.757812 C 78.089844 229.40625 78.199219 227.992188 78.03125 226.597656 L 77.832031 224.9375 L 65.9375 224.9375 C 65.773438 225.660156 65.132812 226.199219 64.359375 226.199219 L 40.402344 226.199219 C 39.628906 226.199219 38.988281 225.660156 38.824219 224.9375 L 27.875 224.9375 C 27.886719 224.828125 27.898438 224.722656 27.910156 224.613281 L 38.785156 224.613281 C 38.785156 224.601562 38.78125 224.589844 38.78125 224.578125 L 38.78125 215.65625 L 29.605469 215.65625 C 29.636719 215.546875 29.671875 215.441406 29.703125 215.332031 L 38.78125 215.332031 L 38.78125 212.007812 C 38.78125 211.113281 39.507812 210.386719 40.402344 210.386719 L 64.359375 210.386719 C 65.257812 210.386719 65.984375 211.113281 65.984375 212.007812 L 65.984375 215.332031 L 79.542969 215.332031 C 81.15625 213.449219 83.546875 212.234375 86.253906 212.234375 C 88.925781 212.234375 91.339844 213.429688 92.96875 215.332031 L 101.515625 215.332031 L 101.480469 215.65625 L 93.234375 215.65625 C 94.214844 216.921875 94.863281 218.460938 95.035156 220.15625 L 95.125 221.015625 L 96.972656 224.613281 L 100.484375 224.613281 L 100.449219 224.9375 L 97.09375 224.9375 C 97.097656 225.144531 96.972656 225.34375 96.757812 225.40625 L 96.03125 225.617188 C 95.820312 225.679688 95.683594 225.878906 95.699219 226.097656 C 95.808594 227.542969 96.132812 232.691406 95.125 233.238281 C 93.949219 233.871094 88.328125 232.734375 88.328125 232.734375 C 88.222656 233.117188 88.136719 233.503906 88.0625 233.894531 L 99.457031 233.894531 L 99.421875 234.21875 L 88.003906 234.21875 C 87.804688 235.421875 87.757812 236.644531 87.859375 237.859375 C 86.601562 237.429688 84.917969 236.773438 82.300781 236.238281 C 79.792969 235.730469 77.375 236.304688 76.003906 236.761719 Z M 69.367188 260.355469 C 68.964844 257.832031 68.441406 255.230469 67.78125 252.78125 C 67.773438 252.738281 67.761719 252.695312 67.75 252.652344 C 67.511719 251.785156 67.261719 250.9375 66.992188 250.117188 C 66.09375 247.382812 66.949219 244.605469 68.808594 242.8125 C 68.71875 242.851562 68.628906 242.886719 68.539062 242.929688 C 68.386719 243.007812 68.242188 243.089844 68.101562 243.171875 L 29.015625 243.171875 C 29.039062 243.28125 29.0625 243.390625 29.085938 243.5 L 67.601562 243.5 C 64.792969 245.511719 63.886719 249.371094 65.625 252.457031 L 31.574219 252.457031 C 31.609375 252.5625 31.644531 252.671875 31.679688 252.78125 L 65.804688 252.78125 Z M 99.804688 308.347656 C 101.132812 308.347656 102.460938 308.273438 103.789062 308.140625 L 95.296875 308.140625 C 96.796875 308.273438 98.300781 308.347656 99.804688 308.347656 Z M 81.613281 298.867188 C 81.300781 298.867188 80.992188 298.863281 80.691406 298.859375 L 68.527344 298.859375 C 68.703125 298.96875 68.886719 299.074219 69.0625 299.183594 L 127.433594 299.183594 C 127.601562 299.074219 127.765625 298.964844 127.933594 298.859375 L 82.011719 298.859375 C 81.878906 298.859375 81.75 298.867188 81.613281 298.867188 Z M 68.730469 289.578125 L 56.21875 289.578125 C 56.339844 289.6875 56.457031 289.792969 56.578125 289.902344 L 68.746094 289.902344 C 68.742188 289.792969 68.734375 289.6875 68.730469 289.578125 Z M 96.148438 289.902344 L 139.347656 289.902344 C 139.464844 289.792969 139.578125 289.6875 139.695312 289.578125 L 96.265625 289.578125 C 96.226562 289.683594 96.191406 289.789062 96.148438 289.902344 Z M 68.984375 280.296875 L 47.371094 280.296875 C 47.460938 280.40625 47.554688 280.511719 47.644531 280.621094 L 68.953125 280.621094 C 68.960938 280.511719 68.972656 280.40625 68.984375 280.296875 Z M 70.332031 271.015625 L 40.601562 271.015625 C 40.671875 271.125 40.742188 271.234375 40.8125 271.339844 L 70.332031 271.339844 C 70.332031 271.234375 70.332031 271.128906 70.332031 271.015625 Z M 120.347656 275.671875 C 121.109375 275.792969 121.859375 275.914062 122.582031 276.023438 L 122.5 275.894531 L 120.574219 275.488281 Z M 137.316406 280.296875 L 142.203125 280.296875 L 140.65625 279.21875 L 137.890625 279.851562 Z M 99.835938 261.734375 L 161.746094 261.734375 C 161.683594 261.84375 161.621094 261.953125 161.554688 262.058594 L 100 262.058594 C 102.054688 266.042969 103.941406 269.355469 105.078125 271.015625 L 155.785156 271.015625 C 155.710938 271.125 155.636719 271.234375 155.558594 271.339844 L 105.308594 271.339844 C 105.601562 271.75 105.835938 272.019531 105.984375 272.121094 C 107.191406 272.925781 110.171875 273.730469 113.652344 274.453125 L 119.175781 272.367188 C 119.742188 272.15625 120.371094 272.230469 120.875 272.5625 L 123.601562 274.386719 L 124.742188 276.34375 C 126.871094 276.652344 128.621094 276.882812 129.597656 277.007812 L 132.621094 276.894531 L 139.105469 274.652344 C 139.6875 274.453125 140.332031 274.542969 140.835938 274.902344 L 143.570312 276.84375 L 145.449219 280.296875 L 148.582031 280.296875 C 148.492188 280.40625 148.398438 280.515625 148.304688 280.621094 L 145.625 280.621094 L 145.6875 280.738281 C 145.808594 280.960938 145.71875 281.238281 145.488281 281.34375 C 145.03125 281.3125 144.507812 281.082031 144.082031 280.765625 L 144.191406 281.511719 C 144.242188 281.851562 143.964844 282.15625 143.621094 282.128906 C 143.082031 282.089844 142.640625 281.691406 142.550781 281.164062 L 142.453125 280.621094 L 136.898438 280.621094 L 135.566406 281.648438 C 134.941406 282.132812 134.210938 282.457031 133.441406 282.597656 C 132.941406 282.6875 132.425781 282.671875 131.921875 282.605469 L 128.855469 282.179688 L 106.023438 282.019531 C 103.265625 281.902344 101.234375 281.378906 99.691406 280.621094 L 93.867188 280.621094 C 93.851562 280.570312 93.835938 280.519531 93.820312 280.464844 C 93.804688 280.421875 93.792969 280.378906 93.78125 280.332031 C 93.777344 280.324219 93.773438 280.308594 93.769531 280.296875 C 93.28125 278.640625 92.933594 276.925781 92.933594 275.40625 C 92.933594 274.542969 93.058594 273.632812 93.269531 272.691406 C 93.320312 272.699219 93.375 272.710938 93.429688 272.722656 L 90.003906 266.109375 C 89.824219 266.148438 89.640625 266.167969 89.453125 266.167969 C 87.75 266.167969 86.066406 264.570312 84.804688 262.058594 L 35.570312 262.058594 C 35.515625 261.953125 35.460938 261.84375 35.410156 261.734375 L 84.648438 261.734375 C 83.71875 259.78125 83.039062 257.320312 82.777344 254.648438 C 82.570312 252.503906 82.65625 250.496094 82.980469 248.777344 C 82.953125 246.53125 83.558594 244.566406 85.238281 243.785156 C 85.371094 243.722656 85.507812 243.671875 85.640625 243.621094 C 86.121094 243.300781 86.640625 243.125 87.203125 243.125 C 87.429688 243.125 87.660156 243.160156 87.882812 243.214844 C 90.132812 243.265625 92.132812 244.699219 93.078125 247.082031 C 94.972656 251.847656 97.5 257.203125 99.832031 261.734375 Z M 97.363281 252.78125 L 97.398438 252.457031 L 96.101562 252.457031 C 96.136719 252.5625 96.175781 252.671875 96.210938 252.78125 Z M 98.429688 243.171875 L 92.070312 243.171875 C 92.109375 243.242188 92.144531 243.308594 92.179688 243.375 C 92.199219 243.414062 92.222656 243.457031 92.242188 243.5 L 98.394531 243.5 Z M 174.585938 206.050781 L 33.539062 206.050781 C 33.480469 206.160156 33.421875 206.269531 33.367188 206.375 L 174.664062 206.375 C 174.636719 206.269531 174.609375 206.160156 174.585938 206.050781 " fill-opacity="1" fill-rule="nonzero"/></g><g clip-path="url(#7732c1c6a6)"><path fill="#393a3f" d="M 139.25 272.015625 L 130.109375 272.046875 L 125.539062 272.058594 L 120.964844 272.105469 L 120.964844 272.253906 L 125.539062 272.296875 L 130.109375 272.3125 L 139.25 272.339844 L 148.394531 272.304688 L 152.964844 272.289062 L 157.535156 272.242188 L 157.535156 272.117188 L 152.964844 272.070312 L 148.394531 272.050781 Z M 135.417969 200.144531 L 132.113281 200.144531 L 132.113281 200.46875 L 135.417969 200.46875 Z M 137.136719 199.386719 L 137.136719 199.0625 L 135.035156 199.0625 L 135.035156 199.386719 Z M 134.214844 199.0625 L 132.113281 199.0625 L 132.113281 199.386719 L 134.214844 199.386719 Z M 137.136719 197.980469 L 132.113281 197.980469 L 132.113281 198.304688 L 137.136719 198.304688 Z M 139.394531 175.378906 C 139.863281 175.378906 140.242188 175 140.242188 174.527344 C 140.242188 174.0625 139.863281 173.679688 139.394531 173.679688 C 138.925781 173.679688 138.546875 174.0625 138.546875 174.527344 C 138.546875 175 138.925781 175.378906 139.394531 175.378906 Z M 93.25 175.378906 C 93.71875 175.378906 94.097656 175 94.097656 174.527344 C 94.097656 174.0625 93.71875 173.679688 93.25 173.679688 C 92.78125 173.679688 92.398438 174.0625 92.398438 174.527344 C 92.398438 175 92.78125 175.378906 93.25 175.378906 Z M 60.082031 200.847656 L 56.777344 200.847656 L 56.777344 201.171875 L 60.082031 201.171875 Z M 61.800781 200.089844 L 61.800781 199.765625 L 59.699219 199.765625 L 59.699219 200.089844 Z M 58.878906 199.765625 L 56.777344 199.765625 L 56.777344 200.089844 L 58.878906 200.089844 Z M 61.800781 198.683594 L 56.777344 198.683594 L 56.777344 199.007812 L 61.800781 199.007812 Z M 48.136719 175.378906 C 48.605469 175.378906 48.988281 175 48.988281 174.527344 C 48.988281 174.0625 48.605469 173.679688 48.136719 173.679688 C 47.667969 173.679688 47.289062 174.0625 47.289062 174.527344 C 47.289062 175 47.667969 175.378906 48.136719 175.378906 Z M 42.097656 224.695312 L 42.421875 224.695312 L 42.421875 224.347656 L 46.945312 224.347656 L 46.945312 224.695312 L 47.269531 224.695312 L 47.269531 224.347656 L 51.792969 224.347656 L 51.792969 224.695312 L 52.117188 224.695312 L 52.117188 224.347656 L 56.640625 224.347656 L 56.640625 224.695312 L 56.964844 224.695312 L 56.964844 224.347656 L 61.488281 224.347656 L 61.488281 224.695312 L 61.8125 224.695312 L 61.8125 224.347656 L 63.289062 224.347656 L 63.289062 224.023438 L 61.8125 224.023438 L 61.8125 223.675781 L 61.488281 223.675781 L 61.488281 224.023438 L 56.964844 224.023438 L 56.964844 223.675781 L 56.640625 223.675781 L 56.640625 224.023438 L 52.117188 224.023438 L 52.117188 223.675781 L 51.792969 223.675781 L 51.792969 224.023438 L 47.269531 224.023438 L 47.269531 223.675781 L 46.945312 223.675781 L 46.945312 224.023438 L 42.421875 224.023438 L 42.421875 223.675781 L 42.097656 223.675781 L 42.097656 224.023438 L 40.652344 224.023438 L 40.652344 224.347656 L 42.097656 224.347656 Z M 147.480469 212.234375 C 147.480469 212.058594 147.335938 211.910156 147.15625 211.910156 L 105.21875 211.910156 C 105.039062 211.910156 104.894531 212.058594 104.894531 212.234375 C 104.894531 212.414062 105.039062 212.558594 105.21875 212.558594 L 147.15625 212.558594 C 147.335938 212.558594 147.480469 212.414062 147.480469 212.234375 Z M 137.996094 258.402344 L 135.832031 258.402344 C 135.652344 258.402344 135.507812 258.546875 135.507812 258.726562 C 135.507812 258.90625 135.652344 259.050781 135.832031 259.050781 L 137.996094 259.050781 C 138.175781 259.050781 138.320312 258.90625 138.320312 258.726562 C 138.320312 258.546875 138.175781 258.402344 137.996094 258.402344 Z M 138.589844 256.605469 C 138.589844 256.425781 138.441406 256.28125 138.265625 256.28125 L 136.097656 256.28125 C 135.921875 256.28125 135.773438 256.425781 135.773438 256.605469 C 135.773438 256.785156 135.921875 256.929688 136.097656 256.929688 L 138.265625 256.929688 C 138.441406 256.929688 138.589844 256.785156 138.589844 256.605469 Z M 139.121094 252.363281 C 139.121094 252.183594 138.976562 252.039062 138.796875 252.039062 L 136.632812 252.039062 C 136.453125 252.039062 136.308594 252.183594 136.308594 252.363281 C 136.308594 252.542969 136.453125 252.6875 136.632812 252.6875 L 138.796875 252.6875 C 138.976562 252.6875 139.121094 252.542969 139.121094 252.363281 Z M 139.386719 250.242188 C 139.386719 250.0625 139.242188 249.917969 139.0625 249.917969 L 136.898438 249.917969 C 136.71875 249.917969 136.574219 250.0625 136.574219 250.242188 C 136.574219 250.421875 136.71875 250.566406 136.898438 250.566406 L 139.0625 250.566406 C 139.242188 250.566406 139.386719 250.421875 139.386719 250.242188 Z M 139.65625 248.121094 C 139.65625 247.941406 139.507812 247.796875 139.332031 247.796875 L 137.164062 247.796875 C 136.988281 247.796875 136.839844 247.941406 136.839844 248.121094 C 136.839844 248.300781 136.988281 248.445312 137.164062 248.445312 L 139.332031 248.445312 C 139.507812 248.445312 139.65625 248.300781 139.65625 248.121094 Z M 108.878906 246.867188 C 108.84375 247.132812 109.03125 247.347656 109.296875 247.347656 C 109.5625 247.347656 109.804688 247.132812 109.835938 246.867188 C 109.871094 246.605469 109.683594 246.386719 109.417969 246.386719 C 109.152344 246.386719 108.910156 246.605469 108.878906 246.867188 Z M 112.792969 216.996094 C 112.761719 217.261719 112.949219 217.476562 113.210938 217.476562 C 113.476562 217.476562 113.71875 217.261719 113.753906 216.996094 C 113.785156 216.730469 113.597656 216.515625 113.332031 216.515625 C 113.066406 216.515625 112.824219 216.730469 112.792969 216.996094 Z M 117.597656 228.398438 C 117.417969 228.398438 117.273438 228.542969 117.273438 228.722656 C 117.273438 228.902344 117.417969 229.046875 117.597656 229.046875 L 121.574219 229.046875 C 121.753906 229.046875 121.898438 228.902344 121.898438 228.722656 C 121.898438 228.542969 121.753906 228.398438 121.574219 228.398438 Z M 140.871094 238.445312 C 140.871094 238.269531 140.726562 238.121094 140.546875 238.121094 L 138.382812 238.121094 C 138.203125 238.121094 138.058594 238.269531 138.058594 238.445312 C 138.058594 238.625 138.203125 238.769531 138.382812 238.769531 L 140.546875 238.769531 C 140.726562 238.769531 140.871094 238.625 140.871094 238.445312 Z M 141.136719 236.328125 C 141.136719 236.148438 140.992188 236.003906 140.8125 236.003906 L 138.648438 236.003906 C 138.46875 236.003906 138.324219 236.148438 138.324219 236.328125 C 138.324219 236.503906 138.46875 236.652344 138.648438 236.652344 L 140.8125 236.652344 C 140.992188 236.652344 141.136719 236.503906 141.136719 236.328125 Z M 141.402344 234.207031 C 141.402344 234.027344 141.257812 233.882812 141.078125 233.882812 L 138.914062 233.882812 C 138.734375 233.882812 138.589844 234.027344 138.589844 234.207031 C 138.589844 234.386719 138.734375 234.53125 138.914062 234.53125 L 141.078125 234.53125 C 141.257812 234.53125 141.402344 234.386719 141.402344 234.207031 Z M 141.667969 232.085938 C 141.667969 231.90625 141.523438 231.761719 141.34375 231.761719 L 139.183594 231.761719 C 139 231.761719 138.855469 231.90625 138.855469 232.085938 C 138.855469 232.265625 139 232.410156 139.183594 232.410156 L 141.34375 232.410156 C 141.523438 232.410156 141.667969 232.265625 141.667969 232.085938 Z M 142.203125 227.84375 C 142.203125 227.664062 142.058594 227.519531 141.878906 227.519531 L 139.714844 227.519531 C 139.535156 227.519531 139.390625 227.664062 139.390625 227.84375 C 139.390625 228.023438 139.535156 228.167969 139.714844 228.167969 L 141.878906 228.167969 C 142.058594 228.167969 142.203125 228.023438 142.203125 227.84375 Z M 142.46875 225.722656 C 142.46875 225.542969 142.324219 225.398438 142.144531 225.398438 L 139.980469 225.398438 C 139.800781 225.398438 139.65625 225.542969 139.65625 225.722656 C 139.65625 225.902344 139.800781 226.046875 139.980469 226.046875 L 142.144531 226.046875 C 142.324219 226.046875 142.46875 225.902344 142.46875 225.722656 Z M 142.734375 223.601562 C 142.734375 223.421875 142.589844 223.277344 142.410156 223.277344 L 140.25 223.277344 C 140.066406 223.277344 139.921875 223.421875 139.921875 223.601562 C 139.921875 223.78125 140.066406 223.925781 140.25 223.925781 L 142.410156 223.925781 C 142.589844 223.925781 142.734375 223.78125 142.734375 223.601562 Z M 143.003906 221.480469 C 143.003906 221.304688 142.859375 221.15625 142.675781 221.15625 L 140.515625 221.15625 C 140.335938 221.15625 140.191406 221.304688 140.191406 221.480469 C 140.191406 221.660156 140.335938 221.804688 140.515625 221.804688 L 142.675781 221.804688 C 142.859375 221.804688 143.003906 221.660156 143.003906 221.480469 Z M 143.269531 219.359375 C 143.269531 219.179688 143.125 219.035156 142.945312 219.035156 L 140.78125 219.035156 C 140.601562 219.035156 140.457031 219.179688 140.457031 219.359375 C 140.457031 219.539062 140.601562 219.683594 140.78125 219.683594 L 142.945312 219.683594 C 143.125 219.683594 143.269531 219.539062 143.269531 219.359375 Z M 93.535156 220.882812 L 95.0625 220.808594 C 95.136719 219.917969 95.394531 219.097656 95.8125 218.886719 C 95.363281 218.839844 94.929688 218.855469 94.597656 219 C 94.574219 217.875 94.128906 217.273438 93.851562 216.566406 C 93.847656 217.375 94.066406 217.128906 93.980469 218.210938 C 93.933594 218.8125 94.054688 219.429688 93.914062 220.015625 C 93.84375 220.324219 93.699219 220.609375 93.535156 220.882812 Z M 95.386719 220.789062 L 96.65625 220.726562 C 96.5625 219.753906 96.25 219.164062 96.027344 219.164062 C 95.792969 219.164062 95.476562 219.78125 95.386719 220.789062 Z M 96.683594 221.050781 L 95.363281 221.117188 C 95.363281 221.191406 95.359375 221.269531 95.359375 221.351562 C 95.359375 222.683594 95.753906 223.535156 96.027344 223.535156 C 96.296875 223.535156 96.691406 222.683594 96.691406 221.351562 C 96.691406 221.246094 96.6875 221.148438 96.683594 221.050781 Z M 66.074219 234.097656 C 65.722656 231.777344 66.398438 229.320312 67.890625 227.507812 C 68.4375 226.84375 69.113281 226.214844 69.28125 225.371094 C 69.457031 224.5 69.042969 223.636719 68.855469 222.769531 C 68.496094 221.117188 69.007812 219.300781 70.175781 218.074219 C 71.070312 217.136719 72.3125 216.542969 73.070312 215.488281 C 73.707031 214.601562 73.929688 213.5 74.363281 212.503906 C 75.585938 209.707031 78.671875 207.847656 81.710938 208.074219 C 82.558594 207.023438 84.195312 206.527344 85.523438 206.761719 C 86.851562 206.996094 88.035156 207.753906 89.066406 208.621094 C 92.320312 208.121094 96.40625 211.222656 97.542969 219.273438 C 97.238281 219.183594 96.8125 219.0625 96.363281 218.972656 C 96.789062 219.332031 97.015625 220.367188 97.015625 221.351562 C 97.015625 222.566406 96.667969 223.863281 96.027344 223.863281 C 95.382812 223.863281 95.035156 222.566406 95.035156 221.351562 C 95.035156 221.277344 95.039062 221.207031 95.039062 221.132812 L 94.304688 221.167969 C 94.445312 221.246094 94.550781 221.523438 94.550781 221.855469 C 94.550781 222.246094 94.40625 222.5625 94.230469 222.5625 C 94.050781 222.5625 93.90625 222.246094 93.90625 221.855469 C 93.90625 221.53125 94.003906 221.261719 94.140625 221.175781 L 93.324219 221.21875 C 93.132812 221.519531 92.9375 221.824219 92.804688 222.15625 C 92.203125 223.679688 93.058594 225.40625 92.816406 227.027344 C 92.667969 228.042969 92.097656 228.949219 91.789062 229.929688 C 91.351562 231.320312 91.660156 233.246094 92.300781 234.558594 L 87.796875 234.558594 C 87.515625 233.496094 87.152344 232.535156 87.113281 231.4375 C 86.8125 232.585938 86.679688 233.632812 86.582031 234.8125 C 86.027344 233.316406 85.660156 231.863281 85.625 230.269531 C 85.464844 231.542969 85.410156 232.820312 85.25 234.097656 Z M 96.511719 277.90625 C 97.011719 278.53125 97.558594 279.121094 98.15625 279.660156 C 98.75 280.203125 99.414062 280.679688 100.140625 281.050781 C 100.507812 281.226562 100.894531 281.367188 101.292969 281.46875 C 101.699219 281.554688 102.089844 281.597656 102.484375 281.65625 C 103.277344 281.753906 104.066406 281.855469 104.859375 281.925781 C 106.445312 282.074219 108.035156 282.175781 109.628906 282.203125 C 109.671875 282.203125 109.703125 282.171875 109.707031 282.132812 C 109.707031 282.09375 109.675781 282.058594 109.636719 282.058594 C 108.84375 282.011719 108.050781 281.949219 107.261719 281.875 C 106.46875 281.808594 105.679688 281.730469 104.890625 281.640625 C 104.101562 281.546875 103.3125 281.457031 102.527344 281.347656 C 102.136719 281.289062 101.738281 281.242188 101.367188 281.15625 C 100.996094 281.0625 100.632812 280.925781 100.285156 280.757812 C 98.882812 280.066406 97.734375 278.933594 96.726562 277.730469 C 96.21875 277.125 95.746094 276.488281 95.304688 275.832031 C 94.859375 275.175781 94.4375 274.503906 94.0625 273.808594 L 94.0625 273.804688 C 94.046875 273.777344 94.007812 273.765625 93.980469 273.78125 C 93.949219 273.796875 93.9375 273.832031 93.949219 273.863281 C 94.660156 275.292969 95.515625 276.652344 96.511719 277.90625 Z M 85.648438 258.285156 C 85.46875 258.175781 85.304688 258.050781 85.144531 257.914062 C 84.984375 257.777344 84.839844 257.621094 84.695312 257.457031 C 84.675781 257.4375 84.648438 257.429688 84.621094 257.441406 C 84.589844 257.453125 84.574219 257.492188 84.585938 257.523438 C 84.753906 257.949219 85.085938 258.3125 85.476562 258.558594 C 85.675781 258.683594 85.882812 258.78125 86.101562 258.851562 C 86.285156 258.910156 86.472656 258.949219 86.660156 258.972656 C 87.285156 260.398438 87.9375 261.808594 88.589844 263.222656 C 89.335938 264.792969 90.085938 266.359375 90.855469 267.914062 C 91.628906 269.472656 92.414062 271.019531 93.238281 272.550781 C 93.257812 272.589844 93.300781 272.601562 93.335938 272.585938 C 93.371094 272.566406 93.386719 272.523438 93.371094 272.484375 C 92.984375 271.707031 92.613281 270.921875 92.238281 270.140625 L 91.113281 267.789062 L 88.882812 263.082031 C 88.136719 261.515625 87.410156 259.9375 86.691406 258.359375 C 86.328125 257.570312 85.976562 256.777344 85.636719 255.980469 C 85.300781 255.183594 84.953125 254.382812 84.699219 253.558594 L 84.699219 253.554688 C 84.691406 253.523438 84.65625 253.507812 84.621094 253.515625 C 84.589844 253.523438 84.570312 253.558594 84.582031 253.589844 C 85.0625 255.273438 85.757812 256.871094 86.4375 258.46875 C 86.476562 258.558594 86.519531 258.648438 86.558594 258.738281 C 86.441406 258.6875 86.320312 258.636719 86.207031 258.582031 C 86.015625 258.492188 85.824219 258.394531 85.648438 258.285156 Z M 94.167969 227.460938 C 94.292969 227.542969 94.429688 227.589844 94.570312 227.625 C 94.714844 227.652344 94.855469 227.667969 95 227.652344 C 95.070312 227.648438 95.136719 227.632812 95.207031 227.625 C 95.277344 227.601562 95.34375 227.585938 95.40625 227.558594 C 95.429688 227.550781 95.445312 227.53125 95.449219 227.507812 C 95.453125 227.472656 95.429688 227.441406 95.394531 227.4375 C 95.125 227.394531 94.878906 227.367188 94.644531 227.308594 C 94.527344 227.28125 94.410156 227.246094 94.296875 227.207031 C 94.183594 227.164062 94.066406 227.109375 93.960938 227.058594 L 93.949219 227.050781 C 93.925781 227.042969 93.898438 227.042969 93.878906 227.054688 C 93.84375 227.074219 93.832031 227.121094 93.851562 227.15625 C 93.933594 227.292969 94.046875 227.382812 94.167969 227.460938 Z M 161.332031 282.558594 L 155.710938 274.109375 L 155.710938 274.035156 L 151.644531 273.992188 L 147.582031 273.976562 L 139.449219 273.945312 L 131.316406 273.984375 L 127.253906 274 L 123.1875 274.046875 L 123.1875 274.171875 L 123.28125 274.171875 L 123.601562 274.386719 L 124.679688 276.238281 L 122.785156 275.96875 C 122.792969 275.964844 122.808594 275.960938 122.820312 275.953125 C 122.890625 275.917969 122.953125 275.859375 123.011719 275.800781 C 123.0625 275.738281 123.109375 275.667969 123.136719 275.589844 C 123.164062 275.515625 123.183594 275.433594 123.175781 275.347656 C 123.171875 275.332031 123.167969 275.316406 123.15625 275.300781 C 123.125 275.269531 123.074219 275.265625 123.039062 275.292969 L 123.035156 275.296875 C 122.976562 275.347656 122.933594 275.398438 122.886719 275.445312 C 122.84375 275.492188 122.804688 275.542969 122.765625 275.589844 C 122.726562 275.640625 122.683594 275.6875 122.644531 275.742188 C 122.605469 275.792969 122.5625 275.847656 122.523438 275.914062 L 122.519531 275.917969 C 122.519531 275.921875 122.519531 275.921875 122.519531 275.925781 L 122.5 275.894531 L 120.628906 275.5 C 120.640625 275.453125 120.65625 275.410156 120.664062 275.363281 C 120.695312 275.207031 120.703125 275.050781 120.707031 274.890625 C 120.703125 274.730469 120.691406 274.574219 120.65625 274.417969 C 120.621094 274.265625 120.574219 274.109375 120.503906 273.96875 C 120.488281 273.945312 120.464844 273.929688 120.4375 273.929688 C 120.394531 273.925781 120.359375 273.960938 120.359375 274.003906 C 120.355469 274.15625 120.367188 274.304688 120.367188 274.453125 L 120.382812 274.898438 L 120.390625 275.339844 C 120.390625 275.433594 120.394531 275.53125 120.394531 275.628906 L 119.464844 275.496094 C 116.21875 275.007812 112.972656 274.515625 109.761719 273.882812 C 108.957031 273.722656 108.152344 273.558594 107.378906 273.332031 C 107.1875 273.273438 106.992188 273.210938 106.832031 273.125 C 106.742188 273.078125 106.726562 273.066406 106.664062 272.964844 L 106.5 272.714844 C 106.285156 272.367188 106.070312 272.019531 105.859375 271.667969 C 105.019531 270.257812 104.199219 268.835938 103.378906 267.417969 L 100.476562 262.375 L 135.152344 262.375 L 137.058594 269.679688 L 150.820312 269.679688 L 148.910156 262.375 L 169.804688 262.375 C 171.84375 262.375 173.554688 260.839844 173.78125 258.816406 L 178.808594 213.46875 C 179.070312 211.097656 177.214844 209.027344 174.832031 209.027344 L 104.429688 209.027344 C 102.390625 209.027344 100.675781 210.5625 100.453125 212.585938 L 96.050781 252.308594 C 96.464844 253.527344 96.808594 254.710938 97.027344 255.800781 L 101.800781 212.738281 C 101.949219 211.394531 103.078125 210.386719 104.429688 210.386719 L 174.832031 210.386719 C 175.59375 210.386719 176.292969 210.699219 176.800781 211.265625 C 177.308594 211.832031 177.542969 212.5625 177.457031 213.320312 L 172.429688 258.667969 C 172.28125 260.007812 171.152344 261.015625 169.804688 261.015625 L 138 261.015625 C 138.03125 260.96875 138.054688 260.910156 138.054688 260.847656 C 138.054688 260.667969 137.910156 260.523438 137.730469 260.523438 L 135.566406 260.523438 C 135.386719 260.523438 135.242188 260.667969 135.242188 260.847656 C 135.242188 260.910156 135.265625 260.96875 135.296875 261.015625 L 99.691406 261.015625 L 98.464844 258.886719 C 98.449219 258.855469 98.410156 258.847656 98.378906 258.863281 C 98.351562 258.878906 98.339844 258.917969 98.355469 258.945312 L 99.5 261.015625 L 99.464844 261.015625 C 99.699219 261.476562 99.933594 261.929688 100.164062 262.375 L 100.25 262.375 L 100.738281 263.253906 L 103.15625 267.542969 C 103.96875 268.96875 104.78125 270.398438 105.609375 271.8125 C 105.816406 272.167969 106.03125 272.519531 106.246094 272.875 L 106.417969 273.136719 C 106.457031 273.183594 106.457031 273.214844 106.527344 273.28125 C 106.585938 273.339844 106.636719 273.363281 106.6875 273.390625 C 106.890625 273.496094 107.089844 273.558594 107.289062 273.625 C 108.085938 273.867188 108.890625 274.035156 109.699219 274.199219 C 112.925781 274.820312 116.175781 275.292969 119.425781 275.761719 L 124.304688 276.429688 L 129.191406 277.03125 C 129.230469 277.035156 129.269531 277.003906 129.273438 276.964844 C 129.277344 276.925781 129.25 276.890625 129.210938 276.882812 L 127.40625 276.625 L 129 274.226562 L 131.316406 274.234375 L 139.449219 274.269531 L 147.582031 274.242188 L 151.644531 274.230469 L 153.609375 274.207031 L 159.167969 282.558594 L 157.109375 282.558594 L 154.160156 279.222656 L 152.800781 280.117188 L 155.320312 282.558594 L 147.152344 282.558594 L 154.578125 277.847656 L 144.117188 277.847656 L 145.6875 280.738281 C 145.808594 280.960938 145.71875 281.238281 145.488281 281.34375 C 145.0625 281.3125 144.582031 281.113281 144.175781 280.828125 C 144.175781 280.820312 144.179688 280.8125 144.175781 280.804688 C 144 280.390625 143.996094 279.9375 143.941406 279.46875 C 143.914062 279.230469 143.863281 278.992188 143.773438 278.757812 C 143.679688 278.523438 143.546875 278.3125 143.394531 278.121094 C 143.078125 277.746094 142.699219 277.453125 142.3125 277.191406 C 141.929688 276.925781 141.546875 276.679688 141.199219 276.378906 C 141.179688 276.359375 141.144531 276.355469 141.121094 276.375 C 141.09375 276.398438 141.089844 276.4375 141.113281 276.460938 C 141.410156 276.835938 141.789062 277.125 142.152344 277.410156 C 142.511719 277.695312 142.871094 277.976562 143.144531 278.324219 C 143.28125 278.496094 143.402344 278.679688 143.484375 278.875 C 143.570312 279.070312 143.609375 279.289062 143.65625 279.507812 C 143.722656 279.871094 143.765625 280.269531 143.921875 280.632812 C 143.722656 280.464844 143.550781 280.277344 143.433594 280.078125 L 142.398438 278.347656 L 140.558594 277.90625 C 140.554688 277.902344 140.554688 277.894531 140.550781 277.890625 C 140.535156 277.871094 140.507812 277.863281 140.480469 277.871094 C 140.476562 277.875 140.472656 277.878906 140.46875 277.882812 L 140.445312 277.878906 L 137.855469 279.878906 C 137.859375 279.863281 137.863281 279.847656 137.863281 279.835938 C 137.878906 279.699219 137.871094 279.5625 137.847656 279.429688 C 137.828125 279.296875 137.789062 279.164062 137.734375 279.039062 C 137.679688 278.917969 137.613281 278.796875 137.519531 278.695312 C 137.5 278.679688 137.476562 278.667969 137.449219 278.671875 C 137.40625 278.679688 137.378906 278.71875 137.386719 278.761719 C 137.40625 278.890625 137.4375 279.007812 137.460938 279.128906 C 137.484375 279.25 137.511719 279.363281 137.53125 279.484375 C 137.554688 279.601562 137.570312 279.722656 137.589844 279.84375 C 137.601562 279.914062 137.613281 279.988281 137.625 280.058594 L 135.566406 281.648438 C 134.984375 282.101562 134.308594 282.40625 133.59375 282.558594 L 131.597656 282.558594 L 129.066406 282.210938 C 129.222656 282.074219 129.363281 281.910156 129.460938 281.722656 C 129.585938 281.488281 129.644531 281.214844 129.605469 280.960938 C 129.601562 280.929688 129.574219 280.902344 129.542969 280.898438 C 129.5 280.890625 129.464844 280.917969 129.457031 280.960938 C 129.421875 281.1875 129.34375 281.394531 129.21875 281.578125 C 129.164062 281.652344 129.101562 281.722656 129.039062 281.789062 C 129.035156 281.640625 129.015625 281.492188 128.980469 281.347656 C 128.914062 281.070312 128.796875 280.804688 128.621094 280.582031 C 128.605469 280.5625 128.578125 280.550781 128.550781 280.5625 C 128.519531 280.574219 128.503906 280.609375 128.515625 280.644531 C 128.609375 280.894531 128.675781 281.144531 128.707031 281.398438 C 128.734375 281.652344 128.734375 281.90625 128.695312 282.15625 C 128.691406 282.164062 128.695312 282.171875 128.695312 282.179688 L 111.261719 282.054688 L 110.496094 282.558594 L 94.523438 282.558594 C 94.566406 282.667969 94.605469 282.777344 94.644531 282.886719 L 178.832031 282.886719 L 178.832031 282.558594 Z M 46.367188 282.558594 L 46.367188 282.886719 L 82.664062 282.886719 C 84.863281 282.886719 85.496094 282.558594 85.496094 282.558594 C 85.78125 282.484375 86.058594 282.378906 86.316406 282.253906 C 88.179688 281.339844 89.300781 279.21875 88.769531 277.035156 L 82.558594 251.476562 C 82.054688 249.414062 80.207031 247.960938 78.085938 247.960938 L 43.382812 247.960938 C 40.402344 247.960938 38.207031 250.753906 38.910156 253.652344 L 45.125 279.207031 C 45.527344 280.867188 46.800781 282.128906 48.390625 282.558594 Z M 96.757812 287.628906 C 96.757812 287.628906 96.75 287.6875 96.734375 287.789062 C 96.507812 289.144531 94.441406 298.867188 81.613281 298.867188 C 76.917969 298.867188 73.527344 298.09375 71.636719 297.507812 C 72.308594 301.347656 75.65625 304.265625 79.683594 304.265625 L 104.355469 304.265625 C 110.464844 304.265625 116.425781 301.722656 116.425781 301.722656 L 114.511719 313.078125 L 127.089844 313.078125 C 127.089844 313.078125 128.542969 301.722656 129.171875 294.105469 C 129.539062 289.644531 126.253906 288.210938 123.46875 287.789062 L 146.097656 287.789062 L 144.628906 300.441406 L 149.277344 301.210938 L 150.839844 287.789062 L 167.585938 287.789062 L 169.53125 304.570312 L 174.367188 305.367188 L 172.328125 287.789062 L 178.832031 287.789062 L 178.832031 287.464844 L 96.675781 287.464844 C 96.726562 287.570312 96.757812 287.628906 96.757812 287.628906 Z M 68.660156 287.464844 L 46.367188 287.464844 L 46.367188 287.789062 L 57.089844 287.789062 C 57.082031 287.839844 57.085938 287.890625 57.074219 287.9375 L 57.03125 288.265625 C 56.996094 288.484375 56.984375 288.703125 56.964844 288.921875 L 56.925781 289.582031 L 56.910156 289.914062 L 56.898438 290.078125 C 56.902344 290.136719 56.863281 290.1875 56.96875 290.253906 C 57.085938 290.210938 57.058594 290.152344 57.078125 290.101562 L 57.105469 289.9375 L 57.164062 289.609375 L 57.28125 288.960938 C 57.308594 288.742188 57.347656 288.523438 57.367188 288.304688 L 57.398438 287.976562 C 57.394531 287.914062 57.421875 287.855469 57.410156 287.789062 L 68.664062 287.789062 C 68.660156 287.683594 68.660156 287.574219 68.660156 287.464844 Z M 123.800781 216.996094 C 123.800781 216.816406 123.65625 216.667969 123.476562 216.667969 L 118.644531 216.667969 C 118.464844 216.667969 118.320312 216.816406 118.320312 216.996094 C 118.320312 217.175781 118.464844 217.320312 118.644531 217.320312 L 123.476562 217.320312 C 123.65625 217.320312 123.800781 217.175781 123.800781 216.996094 Z M 110.976562 216.996094 C 110.941406 217.261719 111.128906 217.476562 111.394531 217.476562 C 111.660156 217.476562 111.902344 217.261719 111.933594 216.996094 C 111.96875 216.730469 111.78125 216.515625 111.515625 216.515625 C 111.25 216.515625 111.007812 216.730469 110.976562 216.996094 Z M 109.578125 217.476562 C 109.3125 217.476562 109.125 217.261719 109.15625 216.996094 C 109.191406 216.730469 109.433594 216.515625 109.699219 216.515625 C 109.964844 216.515625 110.152344 216.730469 110.117188 216.996094 C 110.085938 217.261719 109.84375 217.476562 109.578125 217.476562 " fill-opacity="1" fill-rule="nonzero"/></g><g clip-path="url(#4de49f951a)"><path fill="#777b85" d="M 155.035156 269.679688 L 152.421875 269.679688 L 150.511719 262.375 L 148.910156 262.375 L 150.820312 269.679688 L 123.464844 269.679688 C 122.085938 269.679688 120.964844 270.796875 120.964844 272.179688 L 157.535156 272.179688 C 157.535156 270.796875 156.417969 269.679688 155.035156 269.679688 Z M 66.578125 269.507812 L 61.1875 269.507812 C 60.84375 269.507812 60.550781 269.765625 60.511719 270.109375 L 56.148438 307.914062 C 56.105469 308.316406 56.417969 308.671875 56.824219 308.671875 L 62.214844 308.671875 C 62.558594 308.671875 62.851562 308.414062 62.890625 308.070312 L 67.253906 270.265625 C 67.300781 269.859375 66.984375 269.507812 66.578125 269.507812 Z M 146.90625 282.714844 L 149.09375 282.714844 L 154.074219 279.441406 L 156.96875 282.714844 L 158.582031 282.714844 L 154.578125 277.847656 Z M 176.972656 209.027344 L 174.832031 209.027344 C 177.214844 209.027344 179.070312 211.097656 178.808594 213.46875 L 173.78125 258.816406 C 173.554688 260.839844 171.84375 262.375 169.804688 262.375 L 171.945312 262.375 C 173.984375 262.375 175.699219 260.839844 175.921875 258.816406 L 180.949219 213.46875 C 181.210938 211.097656 179.355469 209.027344 176.972656 209.027344 Z M 123.800781 216.996094 C 123.800781 216.816406 123.65625 216.667969 123.476562 216.667969 L 118.644531 216.667969 C 118.464844 216.667969 118.320312 216.816406 118.320312 216.996094 C 118.320312 217.175781 118.464844 217.320312 118.644531 217.320312 L 123.476562 217.320312 C 123.65625 217.320312 123.800781 217.175781 123.800781 216.996094 Z M 111.515625 216.515625 C 111.25 216.515625 111.007812 216.730469 110.976562 216.996094 C 110.941406 217.261719 111.128906 217.476562 111.394531 217.476562 C 111.660156 217.476562 111.902344 217.261719 111.933594 216.996094 C 111.96875 216.730469 111.78125 216.515625 111.515625 216.515625 Z M 109.699219 216.515625 C 109.433594 216.515625 109.191406 216.730469 109.15625 216.996094 C 109.125 217.261719 109.3125 217.476562 109.578125 217.476562 C 109.84375 217.476562 110.085938 217.261719 110.117188 216.996094 C 110.152344 216.730469 109.964844 216.515625 109.699219 216.515625 Z M 113.753906 216.996094 C 113.71875 217.261719 113.476562 217.476562 113.210938 217.476562 C 112.949219 217.476562 112.761719 217.261719 112.792969 216.996094 C 112.824219 216.730469 113.066406 216.515625 113.332031 216.515625 C 113.597656 216.515625 113.785156 216.730469 113.753906 216.996094 " fill-opacity="1" fill-rule="nonzero"/></g><g clip-path="url(#58265db5f8)"><path fill="#8c52ff" d="M -57.84375 42.519531 C -60.644531 58.273438 -66.296875 68.738281 -63.691406 79.339844 C -57.011719 106.515625 -33.148438 97.6875 -9.578125 89.070312 C 34.402344 72.980469 35.949219 100.03125 55.265625 99.191406 C 100.136719 97.242188 121.5625 37.808594 96.863281 24.640625 C 70.640625 10.65625 72.847656 0.902344 66.144531 -14.839844 C 58.242188 -33.402344 38.234375 -25.054688 22.914062 -16.414062 C 14.3125 -11.5625 11.136719 -3.347656 2.035156 -1.027344 C -24.101562 5.628906 -34.828125 -11.09375 -53.148438 5.308594 C -62.570312 13.746094 -55.1875 27.566406 -57.84375 42.519531 " fill-opacity="1" fill-rule="evenodd"/></g><g fill="#2d3f4e" fill-opacity="1"><g transform="translate(66.891959, 73.046776)"><g><path d="M 0.78125 -8.28125 C 0.78125 -9.90625 1.128906 -11.359375 1.828125 -12.640625 C 2.535156 -13.921875 3.519531 -14.914062 4.78125 -15.625 C 6.039062 -16.34375 7.472656 -16.703125 9.078125 -16.703125 C 11.035156 -16.703125 12.710938 -16.179688 14.109375 -15.140625 C 15.503906 -14.109375 16.4375 -12.695312 16.90625 -10.90625 L 12.484375 -10.90625 C 12.160156 -11.601562 11.695312 -12.128906 11.09375 -12.484375 C 10.488281 -12.847656 9.800781 -13.03125 9.03125 -13.03125 C 7.789062 -13.03125 6.785156 -12.597656 6.015625 -11.734375 C 5.253906 -10.867188 4.875 -9.71875 4.875 -8.28125 C 4.875 -6.832031 5.253906 -5.675781 6.015625 -4.8125 C 6.785156 -3.957031 7.789062 -3.53125 9.03125 -3.53125 C 9.800781 -3.53125 10.488281 -3.707031 11.09375 -4.0625 C 11.695312 -4.425781 12.160156 -4.953125 12.484375 -5.640625 L 16.90625 -5.640625 C 16.4375 -3.859375 15.503906 -2.453125 14.109375 -1.421875 C 12.710938 -0.390625 11.035156 0.125 9.078125 0.125 C 7.472656 0.125 6.039062 -0.226562 4.78125 -0.9375 C 3.519531 -1.65625 2.535156 -2.648438 1.828125 -3.921875 C 1.128906 -5.191406 0.78125 -6.644531 0.78125 -8.28125 Z M 0.78125 -8.28125 "/></g></g></g><g fill="#2d3f4e" fill-opacity="1"><g transform="translate(84.804316, 73.046776)"><g><path d="M 15.75 -16.515625 L 15.75 0 L 11.734375 0 L 11.734375 -6.796875 L 5.484375 -6.796875 L 5.484375 0 L 1.453125 0 L 1.453125 -16.515625 L 5.484375 -16.515625 L 5.484375 -10.046875 L 11.734375 -10.046875 L 11.734375 -16.515625 Z M 15.75 -16.515625 "/></g></g></g><g fill="#2d3f4e" fill-opacity="1"><g transform="translate(101.987959, 73.046776)"><g><path d="M 11.734375 -2.921875 L 5.578125 -2.921875 L 4.578125 0 L 0.375 0 L 6.34375 -16.515625 L 11 -16.515625 L 16.984375 0 L 12.71875 0 Z M 10.703125 -6.015625 L 8.65625 -12.0625 L 6.625 -6.015625 Z M 10.703125 -6.015625 "/></g></g></g><g fill="#2d3f4e" fill-opacity="1"><g transform="translate(119.312644, 73.046776)"><g><path d="M 11.03125 0 L 5.484375 -7.296875 L 5.484375 0 L 1.453125 0 L 1.453125 -16.515625 L 5.484375 -16.515625 L 5.484375 -9.265625 L 10.984375 -16.515625 L 15.703125 -16.515625 L 9.3125 -8.421875 L 15.9375 0 Z M 11.03125 0 "/></g></g></g><g fill="#2d3f4e" fill-opacity="1"><g transform="translate(135.697046, 73.046776)"><g><path d="M 9.875 0 L 6.4375 -6.234375 L 5.484375 -6.234375 L 5.484375 0 L 1.453125 0 L 1.453125 -16.515625 L 8.203125 -16.515625 C 9.503906 -16.515625 10.613281 -16.285156 11.53125 -15.828125 C 12.445312 -15.367188 13.132812 -14.742188 13.59375 -13.953125 C 14.050781 -13.160156 14.28125 -12.28125 14.28125 -11.3125 C 14.28125 -10.21875 13.96875 -9.238281 13.34375 -8.375 C 12.726562 -7.507812 11.816406 -6.894531 10.609375 -6.53125 L 14.421875 0 Z M 5.484375 -9.078125 L 7.96875 -9.078125 C 8.707031 -9.078125 9.257812 -9.253906 9.625 -9.609375 C 10 -9.972656 10.1875 -10.484375 10.1875 -11.140625 C 10.1875 -11.773438 10 -12.269531 9.625 -12.625 C 9.257812 -12.988281 8.707031 -13.171875 7.96875 -13.171875 L 5.484375 -13.171875 Z M 5.484375 -9.078125 "/></g></g></g><g fill="#2d3f4e" fill-opacity="1"><g transform="translate(151.023629, 73.046776)"><g><path d="M 5.484375 -16.515625 L 5.484375 0 L 1.453125 0 L 1.453125 -16.515625 Z M 5.484375 -16.515625 "/></g></g></g></svg>